<svg width="80" height="21" viewBox="0 0 80 21" fill="none" xmlns="http://www.w3.org/2000/svg">
<path fill-rule="evenodd" clip-rule="evenodd" d="M0.171875 5.5L8.84332 0.5L17.5148 5.5V15.5L8.84332 20.5L0.171875 15.5V5.5ZM8.84492 16.2616L13.8411 13.3808V7.6192L8.84492 4.7384L3.84873 7.6192V13.3808L8.84492 16.2616Z" fill="url(#paint0_linear_2627_35861)"/>
<path d="M24.7172 14.9177C25.3965 15.3137 26.1679 15.5105 27.029 15.5105L27.0306 15.5122V15.5098C27.6331 15.5098 28.1785 15.4178 28.6664 15.2345C29.1535 15.0497 29.578 14.8009 29.9385 14.4841C30.2999 14.1681 30.5882 13.8041 30.8045 13.3945C31.0208 12.9841 31.157 12.5489 31.2138 12.0913H29.2792C29.2272 12.3657 29.1351 12.6089 29.0036 12.8209C28.8723 13.0329 28.7089 13.2121 28.515 13.3577C28.3204 13.5041 28.1001 13.6161 27.8557 13.6921C27.6114 13.7689 27.3471 13.8073 27.0627 13.8073C26.5524 13.8073 26.1007 13.6817 25.7089 13.4305C25.3173 13.1793 25.0112 12.8089 24.7877 12.3177C24.565 11.8265 24.4536 11.2129 24.4536 10.5065C24.4536 9.80015 24.5643 9.19855 24.7853 8.70575C25.0056 8.21215 25.3133 7.83695 25.7065 7.57935C26.1007 7.32175 26.5549 7.19295 27.0707 7.19295C27.364 7.19295 27.6331 7.23295 27.8807 7.31375C28.1265 7.39455 28.3476 7.51215 28.5423 7.66735C28.7362 7.82255 28.8964 8.01055 29.0236 8.23055C29.1503 8.45215 29.2352 8.70175 29.2792 8.98095H31.2138C31.1433 8.42975 30.9919 7.93855 30.7579 7.50655C30.5233 7.07455 30.2212 6.70895 29.8496 6.40975C29.4779 6.11055 29.0542 5.88255 28.5776 5.72575C28.1017 5.56895 27.5843 5.48975 27.0299 5.48975C26.1768 5.48975 25.4094 5.68575 24.7276 6.07855C24.0451 6.47135 23.5069 7.04255 23.1111 7.79135C22.7162 8.54095 22.5176 9.45455 22.5176 10.5065C22.5176 11.5585 22.7138 12.4577 23.1071 13.2049C23.5004 13.9521 24.0371 14.5225 24.7172 14.9177Z" fill="url(#paint1_linear_2627_35861)"/>
<path d="M34.1244 11.1183V15.3752H32.249V5.6167H34.0723V9.3295H34.1644C34.3341 8.9063 34.6018 8.5719 34.9646 8.3271C35.3267 8.0831 35.789 7.9599 36.3481 7.9599C36.8551 7.9599 37.2997 8.0687 37.6786 8.2871C38.0591 8.5055 38.3547 8.8199 38.5637 9.2303C38.7736 9.6399 38.8778 10.1367 38.8778 10.7175V15.3735H36.9953V11.0319C36.9953 10.5599 36.8751 10.1927 36.6348 9.9279C36.3945 9.6639 36.0549 9.5319 35.6184 9.5319C35.3251 9.5319 35.0671 9.5951 34.8444 9.7223C34.621 9.8495 34.4456 10.0295 34.3166 10.2623C34.1876 10.4967 34.1235 10.7799 34.1235 11.1175V11.1191L34.1244 11.1183Z" fill="url(#paint2_linear_2627_35861)"/>
<path fill-rule="evenodd" clip-rule="evenodd" d="M40.9561 15.2713C41.3253 15.4369 41.7435 15.5201 42.2114 15.5201L42.2105 15.5209H42.213C42.5846 15.5209 42.9107 15.4698 43.1903 15.3665C43.4698 15.2633 43.7061 15.1257 43.8983 14.9505C44.0913 14.7753 44.2428 14.5777 44.3573 14.3601H44.4094V15.3754H46.2054V10.4577C46.2054 9.99854 46.118 9.61052 45.9458 9.29132C45.7744 8.97292 45.5414 8.71612 45.2514 8.52172C44.9597 8.32652 44.6346 8.18414 44.2741 8.09534C43.9136 8.00574 43.5426 7.96094 43.1621 7.96094C42.611 7.96094 42.1192 8.04332 41.6867 8.20732C41.2541 8.37132 40.8944 8.60972 40.6084 8.92172C40.3225 9.23372 40.1237 9.61294 40.0148 10.0577L41.7595 10.2481C41.8389 10.0041 41.9935 9.79532 42.2249 9.62332C42.4572 9.44972 42.7696 9.36414 43.163 9.36414C43.5346 9.36414 43.8215 9.45532 44.0225 9.63612C44.2228 9.81692 44.3236 10.0713 44.3236 10.3993V10.4321C44.3236 10.5889 44.2636 10.7081 44.1434 10.7889C44.0232 10.8697 43.8326 10.9289 43.5699 10.9657C43.3072 11.0025 42.962 11.0425 42.5334 11.0865C42.1713 11.1217 41.8243 11.1817 41.4944 11.2665C41.1635 11.3513 40.8696 11.4785 40.6093 11.6465C40.3489 11.8145 40.1438 12.0329 39.9924 12.3041C39.841 12.5753 39.7656 12.9169 39.7656 13.3265C39.7656 13.8065 39.8714 14.2097 40.0837 14.5345C40.296 14.8593 40.5869 15.1049 40.9561 15.2713ZM43.5675 13.9913C43.3272 14.1201 43.0452 14.1841 42.7215 14.1841L42.7208 14.1849C42.3843 14.1849 42.1072 14.1089 41.8909 13.9561C41.6747 13.8025 41.5665 13.5777 41.5665 13.2809C41.5665 13.0753 41.6217 12.9049 41.7307 12.7697C41.8396 12.6345 41.9894 12.5281 42.1801 12.4489C42.3707 12.3713 42.5902 12.3145 42.8393 12.2793C42.9531 12.2665 43.082 12.2489 43.2262 12.2273C43.3704 12.2049 43.5178 12.1801 43.666 12.1521C43.8151 12.1241 43.948 12.0921 44.0666 12.0569C44.1836 12.0217 44.2741 11.9825 44.3349 11.9385V12.7577C44.3349 13.0193 44.2668 13.2585 44.1315 13.4745C43.9961 13.6905 43.8078 13.8625 43.5675 13.9913Z" fill="url(#paint3_linear_2627_35861)"/>
<path d="M47.4375 15.3758V8.0542H49.3129V15.3758H47.4375Z" fill="url(#paint4_linear_2627_35861)"/>
<path d="M52.4221 15.3754V11.1185L52.4228 11.1169C52.4228 10.7793 52.4854 10.4961 52.6127 10.2617C52.7401 10.0289 52.9131 9.84892 53.1343 9.72172C53.3546 9.59452 53.61 9.53132 53.8984 9.53132C54.323 9.53132 54.657 9.66572 54.899 9.93132C55.1417 10.1969 55.2626 10.5641 55.2626 11.0313V15.3729H57.1379V10.7169C57.1379 10.1409 57.0338 9.64652 56.8263 9.23372C56.618 8.82172 56.3249 8.50572 55.9467 8.28812C55.5695 8.06972 55.1264 7.96094 54.6194 7.96094C54.0723 7.96094 53.6189 8.08332 53.2585 8.33052C52.898 8.57772 52.6344 8.91054 52.4685 9.32974H52.3893V8.05294H50.5469V15.3754H52.4221Z" fill="url(#paint5_linear_2627_35861)"/>
<path d="M60.2444 5.13672V15.3759H58.3691V5.13672H60.2444Z" fill="url(#paint6_linear_2627_35861)"/>
<path d="M61.4775 8.0542V15.3758H63.3528V8.0542H61.4775Z" fill="url(#paint7_linear_2627_35861)"/>
<path d="M66.4612 15.3754H64.5859V8.05294H66.4284V9.32974H66.5077C66.6734 8.91054 66.937 8.57772 67.2975 8.33052C67.658 8.08332 68.1113 7.96094 68.6586 7.96094C69.1656 7.96094 69.6086 8.06972 69.9867 8.28812C70.3648 8.50572 70.658 8.82172 70.8655 9.23372C71.0729 9.64652 71.177 10.1409 71.177 10.7169V15.3729H69.3018V11.0313C69.3018 10.5641 69.1807 10.1969 68.9381 9.93132C68.6961 9.66572 68.3622 9.53132 67.9376 9.53132C67.6492 9.53132 67.3936 9.59452 67.1733 9.72172C66.9523 9.84892 66.7792 10.0289 66.6519 10.2617C66.5245 10.4961 66.4612 10.7793 66.4612 11.1169V15.3754Z" fill="url(#paint8_linear_2627_35861)"/>
<path d="M79.2175 15.3759H76.9938L74.8741 12.3343L74.2863 12.9855V15.3759H72.4102V5.6167H74.2863V10.9159H74.4032L76.8897 8.0535H79.0661L76.2896 11.2247L79.2175 15.3759Z" fill="url(#paint9_linear_2627_35861)"/>
<path d="M49.3285 5.13672H47.4531V7.00952H49.3285V5.13672Z" fill="url(#paint10_linear_2627_35861)"/>
<path d="M61.4941 5.13672H63.3694V7.00952H61.4941V5.13672Z" fill="url(#paint11_linear_2627_35861)"/>
<defs>
<linearGradient id="paint0_linear_2627_35861" x1="-1.00577" y1="10.5" x2="82.0714" y2="10.5" gradientUnits="userSpaceOnUse">
<stop stop-color="#A4AFC2"/>
<stop offset="0.25" stop-color="#E7EFFC"/>
<stop offset="0.75" stop-color="#BFD4FA"/>
<stop offset="1" stop-color="#A4AFC2"/>
</linearGradient>
<linearGradient id="paint1_linear_2627_35861" x1="-1.00577" y1="10.5" x2="82.0714" y2="10.5" gradientUnits="userSpaceOnUse">
<stop stop-color="#A4AFC2"/>
<stop offset="0.25" stop-color="#E7EFFC"/>
<stop offset="0.75" stop-color="#BFD4FA"/>
<stop offset="1" stop-color="#A4AFC2"/>
</linearGradient>
<linearGradient id="paint2_linear_2627_35861" x1="-1.00577" y1="10.5" x2="82.0714" y2="10.5" gradientUnits="userSpaceOnUse">
<stop stop-color="#A4AFC2"/>
<stop offset="0.25" stop-color="#E7EFFC"/>
<stop offset="0.75" stop-color="#BFD4FA"/>
<stop offset="1" stop-color="#A4AFC2"/>
</linearGradient>
<linearGradient id="paint3_linear_2627_35861" x1="-1.00577" y1="10.5" x2="82.0714" y2="10.5" gradientUnits="userSpaceOnUse">
<stop stop-color="#A4AFC2"/>
<stop offset="0.25" stop-color="#E7EFFC"/>
<stop offset="0.75" stop-color="#BFD4FA"/>
<stop offset="1" stop-color="#A4AFC2"/>
</linearGradient>
<linearGradient id="paint4_linear_2627_35861" x1="-1.00577" y1="10.5" x2="82.0714" y2="10.5" gradientUnits="userSpaceOnUse">
<stop stop-color="#A4AFC2"/>
<stop offset="0.25" stop-color="#E7EFFC"/>
<stop offset="0.75" stop-color="#BFD4FA"/>
<stop offset="1" stop-color="#A4AFC2"/>
</linearGradient>
<linearGradient id="paint5_linear_2627_35861" x1="-1.00577" y1="10.5" x2="82.0714" y2="10.5" gradientUnits="userSpaceOnUse">
<stop stop-color="#A4AFC2"/>
<stop offset="0.25" stop-color="#E7EFFC"/>
<stop offset="0.75" stop-color="#BFD4FA"/>
<stop offset="1" stop-color="#A4AFC2"/>
</linearGradient>
<linearGradient id="paint6_linear_2627_35861" x1="-1.00577" y1="10.5" x2="82.0714" y2="10.5" gradientUnits="userSpaceOnUse">
<stop stop-color="#A4AFC2"/>
<stop offset="0.25" stop-color="#E7EFFC"/>
<stop offset="0.75" stop-color="#BFD4FA"/>
<stop offset="1" stop-color="#A4AFC2"/>
</linearGradient>
<linearGradient id="paint7_linear_2627_35861" x1="-1.00577" y1="10.5" x2="82.0714" y2="10.5" gradientUnits="userSpaceOnUse">
<stop stop-color="#A4AFC2"/>
<stop offset="0.25" stop-color="#E7EFFC"/>
<stop offset="0.75" stop-color="#BFD4FA"/>
<stop offset="1" stop-color="#A4AFC2"/>
</linearGradient>
<linearGradient id="paint8_linear_2627_35861" x1="-1.00577" y1="10.5" x2="82.0714" y2="10.5" gradientUnits="userSpaceOnUse">
<stop stop-color="#A4AFC2"/>
<stop offset="0.25" stop-color="#E7EFFC"/>
<stop offset="0.75" stop-color="#BFD4FA"/>
<stop offset="1" stop-color="#A4AFC2"/>
</linearGradient>
<linearGradient id="paint9_linear_2627_35861" x1="-1.00577" y1="10.5" x2="82.0714" y2="10.5" gradientUnits="userSpaceOnUse">
<stop stop-color="#A4AFC2"/>
<stop offset="0.25" stop-color="#E7EFFC"/>
<stop offset="0.75" stop-color="#BFD4FA"/>
<stop offset="1" stop-color="#A4AFC2"/>
</linearGradient>
<linearGradient id="paint10_linear_2627_35861" x1="-1.00577" y1="10.5" x2="82.0714" y2="10.5" gradientUnits="userSpaceOnUse">
<stop stop-color="#A4AFC2"/>
<stop offset="0.25" stop-color="#E7EFFC"/>
<stop offset="0.75" stop-color="#BFD4FA"/>
<stop offset="1" stop-color="#A4AFC2"/>
</linearGradient>
<linearGradient id="paint11_linear_2627_35861" x1="-1.00577" y1="10.5" x2="82.0714" y2="10.5" gradientUnits="userSpaceOnUse">
<stop stop-color="#A4AFC2"/>
<stop offset="0.25" stop-color="#E7EFFC"/>
<stop offset="0.75" stop-color="#BFD4FA"/>
<stop offset="1" stop-color="#A4AFC2"/>
</linearGradient>
</defs>
</svg>
