<svg width="43" height="43" viewBox="0 0 43 43" fill="none" xmlns="http://www.w3.org/2000/svg">
<path fill-rule="evenodd" clip-rule="evenodd" d="M20.8004 9.19995H28.9004C29.5004 9.19995 29.8004 9.59995 29.8004 10.2L28.8004 17.4C28.7004 17.9 28.2004 18.4 27.6004 18.4H21.1004L20.3004 24.2H26.8004C27.4004 24.2 27.7004 24.6 27.7004 25.2L26.7004 32.4C26.6004 32.9 26.1004 33.4 25.5004 33.4H17.3004L18.4004 25.9H10.9004L12.2004 16.7H19.7004L20.8004 9.19995ZM13.0004 23.7999C13.0004 24 13.1004 24.2 13.3004 24.2H18.4004C18.6004 24.2 18.8004 24 18.8004 23.7999L19.5004 18.7C19.5004 18.5 19.4004 18.2999 19.2004 18.2999H14.1004C13.9004 18.2999 13.7004 18.5 13.7004 18.7L13.0004 23.7999ZM25.9004 26.4C25.9004 26.2 25.8004 26 25.6004 26H20.5004C20.3004 26 20.1004 26.2 20.1004 26.4L19.4004 31.5C19.4004 31.7 19.5004 31.9 19.7004 31.9H24.8004C25.0004 31.9 25.2004 31.7 25.2004 31.5L25.9004 26.4ZM27.3004 16.4L28.0004 11.3C28.0004 11.1 27.9004 10.9 27.7004 10.9H22.6004C22.4004 10.9 22.2004 11.1 22.2004 11.3L21.5004 16.4C21.5004 16.6 21.6004 16.7999 21.8004 16.7999H26.9004C27.1004 16.7999 27.3004 16.6 27.3004 16.4Z" fill="url(#paint0_linear_2712_73546)"/>
<path fill-rule="evenodd" clip-rule="evenodd" d="M0 21.3C0 9.6 9.6 0 21.3 0C33.1 0 42.6 9.6 42.6 21.3C42.6 33 33 42.6 21.3 42.6C9.6 42.6 0 33 0 21.3ZM21.4 41.2C32.4 41.2 41.3 32.3 41.3 21.3H41.2C41.2 10.3 32.2 1.4 21.3 1.4C10.4 1.4 1.4 10.3 1.4 21.3C1.4 32.3 10.4 41.2 21.4 41.2Z" fill="url(#paint1_linear_2712_73546)"/>
<defs>
<linearGradient id="paint0_linear_2712_73546" x1="-0.634666" y1="21.3" x2="44.138" y2="21.3" gradientUnits="userSpaceOnUse">
<stop stop-color="#A4AFC2"/>
<stop offset="0.25" stop-color="#E7EFFC"/>
<stop offset="0.75" stop-color="#BFD4FA"/>
<stop offset="1" stop-color="#A4AFC2"/>
</linearGradient>
<linearGradient id="paint1_linear_2712_73546" x1="-0.634666" y1="21.3" x2="44.138" y2="21.3" gradientUnits="userSpaceOnUse">
<stop stop-color="#A4AFC2"/>
<stop offset="0.25" stop-color="#E7EFFC"/>
<stop offset="0.75" stop-color="#BFD4FA"/>
<stop offset="1" stop-color="#A4AFC2"/>
</linearGradient>
</defs>
</svg>
