<svg width="61" height="16" viewBox="0 0 61 16" fill="none" xmlns="http://www.w3.org/2000/svg">
<g id="Group">
<path id="Vector" d="M9.71144 2.10045V0.798615H0.150391V15.0386H9.71144V13.7366H1.65569V8.40679H9.10131V7.10483H1.65569V2.10045H9.71144Z" fill="white"/>
<path id="Vector_2" d="M13.5054 14.3469C13.0374 13.886 12.8035 13.1264 12.8035 12.0685V6.18939H11.0132V4.88743H12.8035V1.81566H14.268V4.88743H16.9127V6.18939H14.268V12.0685C14.268 12.6655 14.3868 13.0927 14.6243 13.3501C14.8613 13.6079 15.258 13.7366 15.8141 13.7366H16.9127V15.0386H15.8141C14.7428 15.0386 13.9731 14.8081 13.5054 14.3469Z" fill="white"/>
<path id="Vector_3" d="M19.0283 0.798645H20.4931V6.29115C20.8049 5.81666 21.2051 5.43677 21.6933 5.15198C22.1816 4.86719 22.6763 4.72479 23.1783 4.72479H24.6023C25.538 4.72479 26.2939 5.04361 26.8705 5.6809C27.4468 6.31854 27.735 7.15252 27.735 8.18308V15.0386H26.2702V8.14242C26.2702 7.51877 26.1143 7.01013 25.8025 6.61661C25.4904 6.22345 25.0768 6.02675 24.5615 6.02675H23.2189C22.5812 6.02675 22.0015 6.27437 21.4797 6.76926C20.9574 7.26439 20.6285 7.89829 20.4931 8.67133V15.0386H19.0283V0.798645Z" fill="white"/>
<path id="Vector_4" d="M30.8471 14.1944C30.1554 13.523 29.8096 12.6315 29.8096 11.5192V8.61025C29.8096 7.44406 30.1554 6.50472 30.8471 5.79274C31.5388 5.08076 32.4543 4.72477 33.5934 4.72477H35.2614C36.3463 4.72477 37.2212 5.07063 37.8858 5.76221C38.55 6.45392 38.8826 7.36936 38.8826 8.50852V10.2987H31.2743V11.5192C31.2743 12.2246 31.4879 12.7977 31.9151 13.2382C32.3423 13.6791 32.9017 13.8994 33.5934 13.8994H35.1395C35.8175 13.8994 36.3668 13.7131 36.7872 13.34C37.2074 12.9671 37.4179 12.4687 37.4179 11.8448H38.8418C38.8418 12.8486 38.5027 13.6588 37.8248 14.2757C37.1463 14.8931 36.2514 15.2014 35.1395 15.2014H33.5934C32.4543 15.2014 31.5388 14.8657 30.8471 14.1944ZM37.4179 9.03744V8.50853C37.4179 7.76288 37.2212 7.16276 36.828 6.70818C36.4344 6.25396 35.9126 6.02673 35.2614 6.02673H33.5934C32.9017 6.02673 32.3423 6.2641 31.9151 6.73871C31.4879 7.21357 31.2743 7.83721 31.2743 8.61025V9.03744H37.4179Z" fill="white"/>
<path id="Vector_5" d="M40.9575 4.88744H42.3815V6.39286C42.6933 5.90461 43.1002 5.50482 43.602 5.19263C44.1037 4.88081 44.6055 4.72477 45.1075 4.72477H46.4907C47.4266 4.72477 48.1823 5.0436 48.7589 5.68088C49.3352 6.31852 49.6236 7.1525 49.6236 8.18306V15.0386H48.1589V8.1424C48.1589 7.51875 48.0027 7.01011 47.6909 6.61659C47.3789 6.22343 46.9654 6.02673 46.4501 6.02673H45.1481C44.5104 6.02673 43.9307 6.27785 43.4089 6.77938C42.8866 7.28126 42.5577 7.92555 42.4223 8.71198V15.0386H40.9575V4.88744Z" fill="white"/>
<path id="Vector_6" d="M52.3391 14.4283C51.749 13.9131 51.4541 13.2214 51.4541 12.3533V11.7023C51.4541 10.8479 51.7594 10.1633 52.3695 9.6477C52.9799 9.13254 53.7865 8.87465 54.7905 8.87465H56.0924C56.5398 8.87465 57.0008 8.94271 57.4758 9.07811C57.9503 9.21387 58.3572 9.39693 58.6963 9.62742V7.93894C58.6963 7.36936 58.5198 6.90488 58.1672 6.54539C57.8146 6.18627 57.3466 6.00634 56.7638 6.00634H55.1361C54.553 6.00634 54.085 6.1421 53.7327 6.41325C53.3798 6.68465 53.2036 7.04378 53.2036 7.49136H51.7389C51.7389 6.66426 52.0507 5.9962 52.6748 5.48756C53.2985 4.97904 54.1191 4.72477 55.1361 4.72477H56.7638C57.7671 4.72477 58.5773 5.0197 59.1947 5.60968C59.8115 6.19966 60.1202 6.97608 60.1202 7.93894V15.0386H58.7368V13.6146C58.4247 14.1028 58.0147 14.4893 57.5062 14.7742C56.9977 15.059 56.4718 15.2014 55.9297 15.2014H54.7089C53.7189 15.2014 52.929 14.9439 52.3391 14.4283ZM55.9702 13.9197C56.6076 13.9197 57.1772 13.7232 57.679 13.3298C58.1807 12.9366 58.5198 12.4144 58.6963 11.7634V11.0107C58.4247 10.7532 58.0485 10.5464 57.5672 10.3902C57.0857 10.2345 56.5939 10.1563 56.0924 10.1563H54.7905C54.2342 10.1563 53.7834 10.2987 53.4375 10.5835C53.0916 10.8683 52.9188 11.2414 52.9188 11.7023V12.3533C52.9188 12.8282 53.0815 13.2077 53.4071 13.4925C53.7327 13.7773 54.1664 13.9197 54.7089 13.9197L55.9702 13.9197Z" fill="white"/>
</g>
</svg>
