<svg width="242" height="50" viewBox="0 0 242 50" fill="none" xmlns="http://www.w3.org/2000/svg">
<path d="M122.528 30.0078C122.91 31.0383 123.449 32.4065 124.145 34.1122C124.249 33.8634 124.353 33.5884 124.458 33.2864C124.562 32.9843 124.667 32.7079 124.771 32.4592C124.98 31.9973 125.163 31.5623 125.319 31.1538C125.476 30.7452 125.624 30.3455 125.763 29.9546L132.023 13.1075H135.412L121.172 50H117.781L122.476 38.0572L112.304 13.1075H115.851L122.528 30.0078Z" fill="white"/>
<path d="M54.6097 0C62.8318 0.000132218 64.7551 10.4048 64.8941 17.8079C65.033 25.2112 61.8934 41.5115 52.4323 39.5422C44.378 37.8867 43.6844 23.9034 32.5322 23.8583C21.3802 23.9037 20.6867 37.8871 12.6322 39.5422C3.17116 41.5113 0.0315205 25.2111 0.170399 17.8079C0.309365 10.4048 2.23279 0.000263629 10.4548 0C19.908 0.000276774 20.5521 14.6501 32.5322 13.8815C44.5126 14.6504 45.1567 0.000624154 54.6097 0Z" fill="white"/>
<path d="M197.837 32.9791L204.239 4.58123C204.31 4.29396 204.345 4.0334 204.345 3.79998C204.345 3.09956 204.047 2.62253 203.45 2.37104C202.73 2.0838 202.369 1.7434 202.368 1.34852C202.368 1.29466 202.377 1.24009 202.395 1.18624C202.483 0.80913 202.703 0.620499 203.054 0.620404H209.774C210.073 0.620404 210.222 0.746637 210.222 0.998104C210.222 1.05188 210.213 1.11461 210.196 1.18624C210.09 1.65309 209.564 2.04779 208.615 2.37104C207.667 2.69435 207.06 3.43166 206.796 4.58123L198.863 39.6068L194.462 38.4478L176.461 6.41372L170.11 34.5143C170.04 34.8015 170.005 35.0621 170.005 35.2956C170.005 36.014 170.313 36.491 170.928 36.7245C171.648 37.0118 172.008 37.3441 172.008 37.7212C172.008 37.7748 171.999 37.8284 171.982 37.882C171.894 38.2592 171.665 38.4478 171.296 38.4478H164.602C164.304 38.4478 164.154 38.3227 164.154 38.0716C164.154 38.0177 164.163 37.9539 164.181 37.882C164.287 37.4332 164.814 37.0556 165.763 36.7503C166.711 36.4269 167.317 35.6815 167.58 34.5143L174.328 4.58123C174.398 4.29396 174.433 4.0334 174.433 3.79998C174.433 3.09946 174.125 2.6225 173.51 2.37104C172.79 2.08385 172.43 1.74331 172.43 1.34852C172.43 1.29463 172.439 1.24012 172.456 1.18624C172.544 0.80906 172.773 0.620404 173.142 0.620404H179.914L197.837 32.9791Z" fill="white"/>
<path d="M84.1648 17.693H105.395V1.6458H108.786V38.7509H105.395V20.6787H84.1648V38.7509H80.7217V1.6458H84.1648V17.693Z" fill="white"/>
<path d="M165.836 7.54538C165.748 7.92222 165.519 8.11121 165.15 8.11121C164.974 8.1112 164.729 7.75111 164.413 7.03269C163.815 5.79369 163.271 4.83291 162.779 4.15039C162.305 3.46784 161.539 3.12644 160.485 3.12644H149.231L145.912 17.7562H151.947C153.071 17.7561 153.914 17.2978 154.477 16.3818C155.039 15.448 155.548 14.9816 156.005 14.9816C156.286 14.9816 156.426 15.0975 156.426 15.3306C156.426 15.4024 156.417 15.4756 156.4 15.5475L154.871 22.3906C154.783 22.7675 154.564 22.9564 154.213 22.9564C153.756 22.9562 153.422 22.4979 153.211 21.582C153.018 20.666 152.359 20.2077 151.234 20.2077H145.358L141.827 35.916H153.08C154.714 35.9158 156.243 35.2781 157.666 34.003C159.089 32.7098 160.17 31.7042 160.908 30.9858C161.312 30.5906 161.602 30.3926 161.777 30.3926C162.075 30.3928 162.225 30.518 162.225 30.7689C162.225 30.8228 162.216 30.8866 162.199 30.9585C162.146 31.1919 162.084 31.3807 162.013 31.5243L158.535 38.4478H134.315C134.069 38.4478 133.946 38.3309 133.946 38.0974C133.946 38.0436 133.955 37.9715 133.973 37.882C134.078 37.4332 134.606 37.0556 135.554 36.7503C136.503 36.4269 137.109 35.6815 137.372 34.5143L144.119 4.58123C144.189 4.29396 144.225 4.0334 144.225 3.79998C144.225 3.0815 143.917 2.59665 143.302 2.34519C142.582 2.07592 142.222 1.74337 142.221 1.34852C142.221 1.29463 142.231 1.24012 142.248 1.18624C142.336 0.80906 142.565 0.620404 142.934 0.620404H167.391L165.836 7.54538Z" fill="white"/>
<path fill-rule="evenodd" clip-rule="evenodd" d="M233.241 7.78665C233.54 9.32239 233.845 10.8806 234.157 12.4612L236.068 22.0804C236.379 23.6608 236.685 25.2194 236.983 26.7549C237.581 29.8262 238.09 32.4129 238.512 34.5143C238.617 35.1788 238.995 35.7807 239.645 36.3195C239.997 36.5889 240.349 36.8134 240.7 36.993C241.052 37.1725 241.333 37.3428 241.543 37.5043C241.684 37.63 241.772 37.7563 241.807 37.882C241.825 37.9178 241.833 37.954 241.833 37.9897C241.833 38.0255 241.825 38.0616 241.807 38.0974C241.79 38.1513 241.753 38.2137 241.701 38.2856C241.63 38.3931 241.517 38.4477 241.359 38.4478H232.45C232.292 38.4477 232.142 38.3932 232.002 38.2856C231.862 38.16 231.791 38.0254 231.791 37.882C231.774 37.8281 231.766 37.7736 231.766 37.7197C231.801 37.5582 231.951 37.3879 232.214 37.2085C232.407 37.0469 232.635 36.8753 232.898 36.6958C233.162 36.5162 233.382 36.2742 233.557 35.9691C233.645 35.8254 233.707 35.6633 233.743 35.4837C233.778 35.3042 233.795 35.1246 233.795 34.9451C233.795 34.8014 233.785 34.6487 233.768 34.487L231.95 25.2729H216.585C215.601 26.8174 214.626 28.3627 213.66 29.9072C212.694 31.4339 211.718 32.9604 210.734 34.487C210.488 34.8459 210.331 35.1692 210.26 35.4564C210.208 35.5821 210.163 35.7084 210.128 35.8341C210.111 35.9598 210.102 36.0767 210.102 36.1845V36.3454C210.102 36.5788 210.146 36.7769 210.234 36.9385C210.321 37.0821 210.375 37.235 210.392 37.3966C210.375 37.5398 210.357 37.6384 210.339 37.6924C210.339 37.7463 210.313 37.8102 210.26 37.882C210.05 38.2592 209.812 38.4478 209.548 38.4478H202.749C202.573 38.4478 202.459 38.3933 202.406 38.2856C202.424 38.2678 202.433 38.2502 202.433 38.2324C202.433 38.2145 202.424 38.1865 202.406 38.1506C202.407 38.1143 202.442 38.0248 202.512 37.882C202.67 37.6486 203.021 37.4146 203.565 37.1812C203.846 37.0555 204.154 36.9213 204.488 36.7776C204.839 36.6161 205.2 36.4272 205.568 36.2118C206.324 35.7448 206.931 35.1788 207.388 34.5143L230.106 0H231.739C232.143 2.1195 232.644 4.71518 233.241 7.78665ZM223.121 14.8998C221.399 17.6298 219.677 20.3599 217.956 23.09H231.529L228.34 6.68227C226.6 9.43041 224.86 12.1696 223.121 14.8998Z" fill="white"/>
</svg>
