<svg width="148" height="26" viewBox="0 0 148 26" fill="none" xmlns="http://www.w3.org/2000/svg">
<g id="Group 427320480">
<path id="Vector" d="M8.46416 18.7955C8.06463 17.0776 7.83901 15.1022 7.83901 13.0012C7.83901 10.8978 8.0658 8.92244 8.46416 7.20446M8.46416 18.7955C9.32197 22.4947 10.9753 25 12.8743 25C14.772 25 16.4254 22.4947 17.2832 18.7955M8.46416 18.7955C4.08931 17.8754 1 15.6275 1 13.0012C1 10.3737 4.09048 8.12456 8.46416 7.20446M8.46416 18.7955C10.7838 19.2844 15.0764 19.2597 17.2832 18.7955M8.46416 7.20446C9.32197 3.50529 10.9753 1 12.8743 1C14.772 1 16.4254 3.50529 17.2832 7.20446M8.46416 7.20446C10.7838 6.71563 15.0764 6.73913 17.2832 7.20446M17.2832 18.7955C17.7297 16.8707 18.436 13.8014 21.0811 14.2562C22.0094 14.416 22.604 15.0705 22.6005 15.8731C22.5911 18.0787 18.8707 18.4618 17.2832 18.7955ZM17.2832 7.20446L17.2855 7.21622C17.7321 9.14101 18.4418 12.1986 21.0811 11.7438C22.0094 11.584 22.604 10.9295 22.6005 10.1269C22.5911 7.92127 18.8707 7.53819 17.2832 7.20446Z" stroke="url(#paint0_linear_1352_9126)" stroke-width="1.76263"/>
<g id="Subtitle">
<path id="Vector_2" d="M137.097 15.2561L139.278 15.2937C139.391 16.8354 140.594 17.8695 142.437 17.8695C143.998 17.8695 145.126 17.1739 145.126 15.9142C145.126 14.5229 143.753 14.222 141.666 13.846C139.485 13.47 137.417 12.7743 137.417 10.1609C137.417 7.86716 139.297 6.30664 142.099 6.30664C145.107 6.30664 146.987 7.94236 147.081 10.3677H144.919C144.75 9.03284 143.697 8.13038 142.099 8.13038C140.613 8.13038 139.579 8.76962 139.579 10.0105C139.579 11.3642 140.933 11.6462 143.001 12.0035C145.182 12.3983 147.307 13.0939 147.288 15.6885C147.288 18.0575 145.314 19.6932 142.418 19.6932C139.147 19.6932 137.173 17.8883 137.097 15.2561Z" fill="url(#paint1_linear_1352_9126)"/>
<path id="Vector_3" d="M125.836 19.5804V6.41943H130.668C133.564 6.41943 135.218 7.73553 135.218 9.89769C135.218 11.4582 134.335 12.3983 132.962 12.7743C134.523 13.0187 135.726 13.94 135.726 15.8201C135.726 18.1515 134.015 19.5804 130.838 19.5804H125.836ZM130.725 8.22437H127.999V12.0035H130.725C132.21 12.0035 133.056 11.289 133.056 10.1045C133.056 8.93882 132.229 8.22437 130.725 8.22437ZM130.856 13.7896H127.999V17.7567H130.856C132.586 17.7567 133.507 17.0234 133.507 15.8013C133.507 14.504 132.53 13.7896 130.856 13.7896Z" fill="url(#paint2_linear_1352_9126)"/>
<path id="Vector_4" d="M114.315 19.5804H112.078L117.004 6.41943H119.58L124.487 19.5804H122.174L120.933 16.3278H115.537L114.315 19.5804ZM118.226 8.75081L116.139 14.4852H120.332L118.226 8.75081Z" fill="url(#paint3_linear_1352_9126)"/>
<path id="Vector_5" d="M111.423 19.5804H103.602V6.41943H105.764V17.6627H111.423V19.5804Z" fill="url(#paint4_linear_1352_9126)"/>
<path id="Vector_6" d="M86.697 15.2561L88.878 15.2937C88.9908 16.8354 90.1941 17.8695 92.0366 17.8695C93.5971 17.8695 94.7252 17.1739 94.7252 15.9142C94.7252 14.5229 93.3527 14.222 91.2658 13.846C89.0848 13.47 87.0166 12.7743 87.0166 10.1609C87.0166 7.86716 88.8968 6.30664 91.6982 6.30664C94.7064 6.30664 96.5866 7.94236 96.6806 10.3677H94.5184C94.3492 9.03284 93.2963 8.13038 91.6982 8.13038C90.2129 8.13038 89.1788 8.76962 89.1788 10.0105C89.1788 11.3642 90.5325 11.6462 92.6007 12.0035C94.7816 12.3983 96.9062 13.0939 96.8874 15.6885C96.8874 18.0575 94.9132 19.6932 92.0178 19.6932C88.7464 19.6932 86.7722 17.8883 86.697 15.2561Z" fill="url(#paint5_linear_1352_9126)"/>
<path id="Vector_7" d="M85.3265 12.9999C85.3265 16.8542 82.7131 19.6932 78.934 19.6932C75.1549 19.6932 72.5415 16.8542 72.5415 12.9999C72.5415 9.14565 75.1549 6.30664 78.934 6.30664C82.7131 6.30664 85.3265 9.14565 85.3265 12.9999ZM74.7601 12.9999C74.7601 15.7826 76.4334 17.7943 78.934 17.7943C81.4346 17.7943 83.1079 15.7826 83.1079 12.9999C83.1079 10.2173 81.4346 8.20558 78.934 8.20558C76.4334 8.20558 74.7601 10.2173 74.7601 12.9999Z" fill="url(#paint6_linear_1352_9126)"/>
<path id="Vector_8" d="M62.0972 19.5804H59.8599L64.7858 6.41943H67.3616L72.2688 19.5804H69.9562L68.7153 16.3278H63.3193L62.0972 19.5804ZM66.0079 8.75081L63.921 14.4852H68.1137L66.0079 8.75081Z" fill="url(#paint7_linear_1352_9126)"/>
<path id="Vector_9" d="M48.0786 19.5804V6.41943H50.2408V11.947H56.3512V6.41943H58.5134V19.5804H56.3512V13.8648H50.2408V19.5804H48.0786Z" fill="url(#paint8_linear_1352_9126)"/>
<path id="Vector_10" d="M40.5743 19.6932C36.7389 19.6932 34.3511 17.0422 34.3511 12.9999C34.3511 8.99524 36.8141 6.30664 40.706 6.30664C43.7142 6.30664 45.8763 8.11158 46.3088 10.8942H44.0714C43.639 9.23966 42.3981 8.20558 40.6119 8.20558C38.1114 8.20558 36.5696 10.1797 36.5696 12.9999C36.5696 15.8014 38.0738 17.7943 40.5555 17.7943C42.3793 17.7943 43.639 16.779 44.0526 15.1057H46.29C45.8763 17.8883 43.639 19.6932 40.5743 19.6932Z" fill="url(#paint9_linear_1352_9126)"/>
</g>
</g>
<defs>
<linearGradient id="paint0_linear_1352_9126" x1="1" y1="13" x2="22.6005" y2="13" gradientUnits="userSpaceOnUse">
<stop stop-color="#B0BACC"/>
<stop offset="0.19" stop-color="#C8D9FA"/>
<stop offset="0.715" stop-color="#D6E3FA"/>
<stop offset="1" stop-color="#A9B7CE"/>
</linearGradient>
<linearGradient id="paint1_linear_1352_9126" x1="136.946" y1="12.9999" x2="147.656" y2="12.9999" gradientUnits="userSpaceOnUse">
<stop stop-color="#A4AFC2"/>
<stop offset="0.25" stop-color="#E7EFFC"/>
<stop offset="0.75" stop-color="#BFD4FA"/>
<stop offset="1" stop-color="#A4AFC2"/>
</linearGradient>
<linearGradient id="paint2_linear_1352_9126" x1="125.689" y1="12.9999" x2="136.083" y2="12.9999" gradientUnits="userSpaceOnUse">
<stop stop-color="#A4AFC2"/>
<stop offset="0.25" stop-color="#E7EFFC"/>
<stop offset="0.75" stop-color="#BFD4FA"/>
<stop offset="1" stop-color="#A4AFC2"/>
</linearGradient>
<linearGradient id="paint3_linear_1352_9126" x1="111.893" y1="12.9999" x2="124.935" y2="12.9999" gradientUnits="userSpaceOnUse">
<stop stop-color="#A4AFC2"/>
<stop offset="0.25" stop-color="#E7EFFC"/>
<stop offset="0.75" stop-color="#BFD4FA"/>
<stop offset="1" stop-color="#A4AFC2"/>
</linearGradient>
<linearGradient id="paint4_linear_1352_9126" x1="103.485" y1="12.9999" x2="111.705" y2="12.9999" gradientUnits="userSpaceOnUse">
<stop stop-color="#A4AFC2"/>
<stop offset="0.25" stop-color="#E7EFFC"/>
<stop offset="0.75" stop-color="#BFD4FA"/>
<stop offset="1" stop-color="#A4AFC2"/>
</linearGradient>
<linearGradient id="paint5_linear_1352_9126" x1="86.5452" y1="12.9999" x2="97.2554" y2="12.9999" gradientUnits="userSpaceOnUse">
<stop stop-color="#A4AFC2"/>
<stop offset="0.25" stop-color="#E7EFFC"/>
<stop offset="0.75" stop-color="#BFD4FA"/>
<stop offset="1" stop-color="#A4AFC2"/>
</linearGradient>
<linearGradient id="paint6_linear_1352_9126" x1="72.351" y1="12.9999" x2="85.7881" y2="12.9999" gradientUnits="userSpaceOnUse">
<stop stop-color="#A4AFC2"/>
<stop offset="0.25" stop-color="#E7EFFC"/>
<stop offset="0.75" stop-color="#BFD4FA"/>
<stop offset="1" stop-color="#A4AFC2"/>
</linearGradient>
<linearGradient id="paint7_linear_1352_9126" x1="59.675" y1="12.9999" x2="72.7168" y2="12.9999" gradientUnits="userSpaceOnUse">
<stop stop-color="#A4AFC2"/>
<stop offset="0.25" stop-color="#E7EFFC"/>
<stop offset="0.75" stop-color="#BFD4FA"/>
<stop offset="1" stop-color="#A4AFC2"/>
</linearGradient>
<linearGradient id="paint8_linear_1352_9126" x1="47.9232" y1="12.9999" x2="58.8901" y2="12.9999" gradientUnits="userSpaceOnUse">
<stop stop-color="#A4AFC2"/>
<stop offset="0.25" stop-color="#E7EFFC"/>
<stop offset="0.75" stop-color="#BFD4FA"/>
<stop offset="1" stop-color="#A4AFC2"/>
</linearGradient>
<linearGradient id="paint9_linear_1352_9126" x1="34.1729" y1="12.9999" x2="46.7405" y2="12.9999" gradientUnits="userSpaceOnUse">
<stop stop-color="#A4AFC2"/>
<stop offset="0.25" stop-color="#E7EFFC"/>
<stop offset="0.75" stop-color="#BFD4FA"/>
<stop offset="1" stop-color="#A4AFC2"/>
</linearGradient>
</defs>
</svg>
