<svg width="115" height="125" viewBox="0 0 115 125" fill="none" xmlns="http://www.w3.org/2000/svg">
<path d="M69.7519 123.966C75.8021 124.172 81.7491 123.519 87.4899 121.799C98.3871 118.531 107.531 112.58 114.922 103.947C114.922 103.947 114.922 103.947 114.888 103.912C112.859 102.193 110.831 100.507 108.837 98.8218L106.809 97.1363C106.431 96.8268 106.087 96.5172 105.709 96.2076C104.919 95.5197 104.128 94.8662 103.303 94.2126C96.2902 98.8562 88.5899 101.539 80.0991 101.883C75.8364 102.055 71.6082 101.642 67.4831 100.507C60.5047 98.6154 54.2483 95.1757 49.2294 89.7755C40.0854 79.938 36.854 68.1743 39.226 55.0348C40.7041 46.9172 44.4168 40.0723 50.0888 34.5C48.8856 34.7408 47.6825 35.016 46.5137 35.3943C37.5072 38.2148 30.5976 43.6839 25.6131 51.6639C21.6598 58.0273 19.5629 64.9411 19.3223 72.4739C19.1848 76.7047 19.4598 80.7979 20.4223 84.7879C23.4818 97.2395 30.2882 107.043 40.6698 114.335H40.7729V114.403C41.1167 114.644 41.4604 114.919 41.8042 115.16C50.2607 120.801 59.5766 123.691 69.7519 124.035V123.966Z" fill="white"/>
<path d="M73.1896 89.052C69.1676 90.8406 65.0081 91.8725 60.6768 92.2165C65.9707 95.209 71.7802 96.688 78.1054 96.8256C80.168 96.86 82.2305 96.6536 84.3962 96.3097C89.7245 95.4841 94.6746 93.5579 99.281 90.7374C94.9153 87.057 90.5839 83.4109 86.2181 79.7305C82.5055 83.6861 78.1741 86.8506 73.1896 89.052Z" fill="white"/>
<path d="M67.9643 0.241609C67.4143 0.276006 66.8643 0.344799 66.3486 0.413592C71.6425 1.4111 76.7646 3.13093 81.6116 5.71068C91.0306 10.7326 98.3527 17.9215 103.268 27.4494L105.915 25.1448C108.631 22.7714 111.347 20.3981 114.063 18.0247C107.634 11.1797 100.072 6.15784 91.2025 3.06214C85.2898 0.998336 79.2396 -0.0335643 73.0176 0.000832322C71.3675 0.000832322 69.6831 0.138419 67.9643 0.241609Z" fill="white"/>
<path d="M26.4037 107.871C18.4628 97.9988 14.1314 86.7167 14.2002 73.818C14.2002 67.317 15.5409 61.0568 18.1191 55.1062C21.9348 46.2662 27.9506 39.1805 36.4071 34.2962C44.348 29.687 52.9763 27.8984 62.1547 29.2743C71.5738 30.7189 79.3771 35.2249 85.6336 42.2762C85.6336 42.2762 85.8398 42.5514 85.9429 42.6546C86.8711 41.8291 87.8336 41.0035 88.7618 40.178L89.8962 39.1805C90.8587 38.355 91.8212 37.4951 92.7838 36.6696C94.9838 34.7434 97.1495 32.8515 99.3152 30.9253C95.087 22.223 88.7274 15.55 80.3053 10.8377C70.3706 5.26541 59.6797 3.54557 48.37 5.02463C42.7323 5.78136 37.3352 7.50119 32.1788 10.0465C14.6815 18.7145 2.06546 36.532 1.03418 58.4771C0.862296 62.0887 1.10293 65.7348 1.65294 69.3464C3.02798 78.3239 6.32808 86.4759 11.622 93.8368C15.7471 99.5123 20.6629 104.19 26.3693 107.871H26.4037Z" fill="white"/>
</svg>
