<svg width="63" height="63" viewBox="0 0 63 63" fill="none" xmlns="http://www.w3.org/2000/svg">
<path d="M26.642 0.379663C9.48314 3.05821 -2.29888 19.1991 0.379663 36.358C3.05821 53.5169 19.1991 65.2989 36.358 62.6203C53.5169 59.9418 65.2989 43.8009 62.6203 26.642C59.9418 9.48314 43.8009 -2.29888 26.642 0.379663ZM27.2771 4.44768C29.2318 4.14255 31.1724 4.05422 33.071 4.16414C30.5849 7.2317 26.8375 10.3878 21.1972 12.7497C15.8621 14.9848 10.3907 17.2807 6.19029 21.0722C9.72439 12.5321 17.4955 5.9746 27.2771 4.44768ZM4.44768 35.7229C4.2178 34.2503 4.11206 32.7854 4.11983 31.3403C4.62833 29.9128 5.27532 28.6117 6.06562 27.4278C9.66333 22.0448 16.0389 19.3743 22.7881 16.5477C30.4761 13.3286 35.0388 8.73461 37.7033 4.83493C39.1265 5.16909 40.5146 5.61289 41.8526 6.16244C41.4895 7.30675 40.9038 8.77334 39.961 10.4082C37.9357 13.9185 33.7985 18.9419 25.5911 22.9317C20.1414 25.5805 13.3617 28.8787 9.35695 36.2859C8.2463 38.3407 7.37753 40.637 6.74428 43.2007C5.64952 40.8859 4.86235 38.3793 4.44768 35.7229ZM9.97937 48.4151C11.7604 34.2376 19.4171 30.5108 27.3939 26.632C34.6753 23.0909 39.1907 18.7815 41.9914 14.873C40.8105 21.4164 37.7785 27.6467 32.9335 33.4619C27.9672 39.4211 23.0443 46.6861 24.2 55.3838C24.3171 56.2677 24.4965 57.1502 24.7356 58.0276C18.8883 56.5276 13.6956 53.1211 9.98141 48.4148L9.97937 48.4151ZM36.0953 36.0979C44.7345 25.7316 46.6141 15.5891 46.6711 8.9065C46.6717 8.84389 46.671 8.78567 46.6716 8.72307C51.2809 11.7957 54.953 16.2459 57.0269 21.5895C56.7613 23.2916 56.233 25.6868 55.1746 28.3169C52.4813 35.0089 47.8017 40.0149 41.2598 43.1947C36.8251 45.3517 31.9619 48.0069 28.1491 52.6525C28.2097 46.4736 31.9607 41.0584 36.0953 36.0979ZM35.725 58.552C33.5648 58.8892 31.4217 58.9612 29.331 58.7959C29.2796 58.6664 29.2301 58.5366 29.1827 58.4064C32.2474 52.9858 36.9645 49.8617 43.0591 46.8997C52.1591 42.4746 56.6575 35.48 58.8505 30.2017C59.5168 43.9868 49.6623 56.3784 35.7253 58.554L35.725 58.552Z" fill="white"/>
</svg>
