<svg width="19" height="20" viewBox="0 0 19 20" fill="none" xmlns="http://www.w3.org/2000/svg">
<g id="Icon">
<path d="M9.50595 13C6.33588 13 3.51675 14.5306 1.72195 16.906C1.33566 17.4172 1.14251 17.6728 1.14883 18.0183C1.15371 18.2852 1.32132 18.6219 1.53132 18.7867C1.80314 19 2.17982 19 2.93319 19H16.0787C16.8321 19 17.2088 19 17.4806 18.7867C17.6906 18.6219 17.8582 18.2852 17.8631 18.0183C17.8694 17.6728 17.6763 17.4172 17.29 16.906C15.4952 14.5306 12.676 13 9.50595 13Z" stroke="#A7C2F3" stroke-width="2" stroke-linecap="round" stroke-linejoin="round"/>
<path d="M9.50595 10C11.9912 10 14.006 7.98528 14.006 5.5C14.006 3.01472 11.9912 1 9.50595 1C7.02067 1 5.00595 3.01472 5.00595 5.5C5.00595 7.98528 7.02067 10 9.50595 10Z" stroke="#A7C2F3" stroke-width="2" stroke-linecap="round" stroke-linejoin="round"/>
</g>
</svg>
