<svg width="1839" height="1839" viewBox="0 0 1839 1839" fill="none" xmlns="http://www.w3.org/2000/svg">
    <g clip-path="url(#clip0_2_114)">
        <path
            d="M1839.2 919.308C1839.2 737.486 1785.29 559.747 1684.27 408.568C1583.26 257.388 1439.68 139.558 1271.7 69.9781C1103.72 0.397862 918.875 -17.8075 740.546 17.6642C562.218 53.1358 398.414 140.691 269.846 269.259C141.279 397.826 53.7228 561.631 18.2511 739.96C-17.2205 918.288 0.984541 1103.13 70.5648 1271.11C140.145 1439.09 257.976 1582.67 409.155 1683.68C560.335 1784.7 738.073 1838.62 919.895 1838.62C1040.62 1838.63 1160.17 1814.86 1271.71 1768.66C1383.26 1722.47 1484.61 1654.75 1569.97 1569.39C1655.34 1484.02 1723.06 1382.67 1769.25 1271.13C1815.45 1159.59 1839.22 1040.04 1839.2 919.308Z"
            fill="black" />
        <path
            d="M1523.59 873.358C1504.11 858.627 1483.85 844.962 1462.9 832.422C1453.87 826.706 1445.46 820.051 1437.83 812.568C1422.17 797.115 1396.08 769.996 1387.48 753.314C1382.05 743.08 1384.31 723.534 1388.5 705.215C1395.93 673.12 1390.38 639.388 1373.05 611.371L1345.83 566.956C1333.27 546.75 1323.2 525.102 1315.84 502.483C1306.41 473.438 1290.04 447.129 1268.15 425.831C1223.84 382.542 1101.14 361.358 999.309 357.878C992.982 356.03 986.559 354.527 980.069 353.375C934.733 345.597 886.429 332.907 842.935 341.299C778.462 353.273 713.374 373.434 664.764 423.17C654.53 433.404 639.588 438.009 629.047 447.527C608.58 466.459 579.925 466.459 561.299 487.439C550.349 499.719 545.335 539.631 516.782 554.88C469.502 580.26 434.911 608.096 423.142 622.321C414.443 633.066 407.792 645.552 399.4 656.502C391.008 667.452 350.073 687.204 337.997 698.563C328.967 708.581 322.412 720.576 318.857 733.586C315.303 746.596 314.848 760.258 317.529 773.475C318.246 776.648 318.756 779.206 319.166 781.253C323.873 798.65 336.564 830.068 333.596 844.498C330.219 861.589 286.213 988.898 384.765 1022.87C393.776 1025.56 401.689 1031.07 407.343 1038.58C412.997 1046.1 416.094 1055.23 416.183 1064.63C418.195 1081.63 423.074 1098.17 430.613 1113.55C437.162 1126.02 446.82 1136.6 458.653 1144.25C471.251 1156.31 483.174 1169.05 494.369 1182.42C529.165 1246.79 519.442 1278.93 586.474 1300.83C603.584 1306.48 620.023 1314 635.495 1323.24C654.322 1334.59 674.505 1343.53 695.568 1349.85L698.228 1350.77C713.068 1315.05 728.009 1281.07 743.053 1249.14C623.01 1126.34 654.53 988.284 666.094 951.34C666.42 950.229 667.023 949.218 667.845 948.403C668.668 947.588 669.684 946.994 670.797 946.678C671.911 946.361 673.086 946.331 674.214 946.592C675.342 946.852 676.386 947.394 677.249 948.167C702.424 970.272 778.974 1049.89 769.968 1193.78C796.474 1140.87 822.161 1094.31 845.699 1054.6C817.368 1008.06 802.238 954.689 801.931 900.207C801.625 845.724 816.153 792.186 843.958 745.332C844.59 744.361 845.455 743.562 846.473 743.01C847.492 742.457 848.634 742.168 849.792 742.168C850.951 742.168 852.092 742.457 853.111 743.01C854.129 743.562 854.993 744.361 855.625 745.332C873.33 771.531 921.224 857.904 891.546 981.222C913.14 948.269 930.537 923.913 941.998 908.664C972.7 703.987 1127.44 636.955 1168.07 622.73C1169.15 622.327 1170.32 622.207 1171.47 622.379C1172.62 622.552 1173.7 623.013 1174.62 623.718C1175.54 624.423 1176.27 625.351 1176.73 626.413C1177.19 627.475 1177.38 628.637 1177.28 629.792C1170.92 692.082 1148.24 751.592 1111.53 802.316C1074.82 853.04 1025.38 893.183 968.198 918.694C946.604 947.041 925.83 976.924 906.079 1007.63C974.543 954 1070.64 928.825 1150.46 948.167C1151.59 948.43 1152.63 948.969 1153.5 949.736C1154.37 950.503 1155.03 951.475 1155.42 952.562C1155.82 953.649 1155.94 954.817 1155.77 955.962C1155.6 957.107 1155.15 958.191 1154.45 959.117C1131.53 989.819 1040.24 1092.16 867.905 1068.41C838.841 1117.44 812.233 1167.07 788.593 1214.45C862.891 1158.37 971.37 1136.78 1055.49 1165.12C1056.62 1165.47 1057.63 1166.1 1058.45 1166.94C1059.26 1167.79 1059.85 1168.82 1060.16 1169.96C1060.46 1171.09 1060.48 1172.29 1060.2 1173.43C1059.92 1174.57 1059.36 1175.62 1058.56 1176.48C1032.47 1204.63 931.868 1296.94 766.386 1260.3C750.831 1293.15 727.702 1346.98 716.445 1373.59C712.556 1382.8 708.974 1392.01 706.211 1401.42C698.945 1423.12 689.017 1450.24 677.249 1477.36C675.614 1481.22 674.788 1485.38 674.822 1489.57C674.857 1493.77 675.751 1497.91 677.448 1501.75C679.146 1505.58 681.61 1509.03 684.692 1511.88C687.773 1514.72 691.404 1516.91 695.363 1518.3C825.885 1564.94 967.62 1570.2 1101.24 1533.34C1105.65 1532.08 1109.73 1529.84 1113.16 1526.79C1116.6 1523.75 1119.31 1519.97 1121.09 1515.74C1123.85 1509.19 1126.62 1502.94 1126.62 1502.94C1126.62 1502.94 1184.34 1368.88 1192.83 1310.45C1195.27 1292.04 1200.99 1274.23 1209.72 1257.84C1214.22 1249.65 1220.74 1242.74 1228.65 1237.76C1236.56 1232.79 1245.62 1229.91 1254.95 1229.39C1298.96 1227.04 1392.6 1220.9 1426.68 1210.15C1472.01 1195.72 1452.36 1113.24 1449.9 1104.44C1447.45 1095.64 1471.7 1074.86 1476.72 1062.79C1481.73 1050.71 1464.44 1046.62 1457.38 1033.31C1450.32 1020.01 1474.88 1010.59 1478.36 998.518C1481.83 986.442 1470.37 973.342 1465.77 964.439C1462.62 957.972 1460.45 951.075 1459.32 943.971C1459.32 943.971 1492.48 919.717 1510.49 904.366C1528.5 889.015 1524.82 876.428 1524.72 873.665"
            fill="#00CFFF" />
    </g>
    <defs>
        <clipPath id="clip0_2_114">
            <rect width="1839" height="1839" fill="white" />
        </clipPath>
    </defs>
</svg>