<svg xmlns="http://www.w3.org/2000/svg" width="336" height="186" viewBox="0 0 336 186" fill="none">
  <path d="M284.979 110.571C276.481 95.8522 265.13 82.9782 251.592 72.7039L225.542 107.029C234.512 113.836 242.032 122.365 247.662 132.116L284.979 110.571Z" fill="#339AF0" stroke="black"/>
  <path d="M251.591 72.7042C246.233 68.6384 240.563 65.0023 234.633 61.8299L214.307 99.8254C218.235 101.927 221.992 104.336 225.541 107.03L251.591 72.7042Z" fill="#7E848E" stroke="black"/>
  <path d="M234.633 61.8295C210.512 48.9259 182.884 44.1107 155.82 48.0932C128.756 52.0757 103.687 64.6453 84.3058 83.9503C64.9244 103.255 52.2559 128.275 48.1666 155.323C44.0772 182.371 48.7834 210.017 61.5916 234.189L99.6671 214.013C91.1816 197.999 88.0638 179.684 90.773 161.764C93.4822 143.845 101.875 127.27 114.715 114.48C127.555 101.69 144.164 93.3631 162.094 90.7247C180.023 88.0863 198.327 91.2764 214.307 99.825L234.633 61.8295Z" fill="#BDD1F6" stroke="black"/>
  <path d="M61.5925 234.189C70.4572 250.918 82.9315 265.466 98.112 276.78C113.293 288.094 130.799 295.89 149.364 299.604C167.929 303.318 187.088 302.856 205.453 298.253C223.817 293.649 240.928 285.019 255.547 272.987L228.163 239.717C218.478 247.688 207.142 253.406 194.975 256.456C182.809 259.505 170.116 259.811 157.817 257.351C145.517 254.89 133.919 249.725 123.862 242.23C113.805 234.734 105.541 225.096 99.668 214.013L61.5925 234.189Z" fill="#BD9BF3" stroke="black"/>
  <path d="M255.546 272.987C278.883 253.78 294.649 226.915 300.038 197.175C305.428 167.434 300.091 136.746 284.979 110.571L247.661 132.116C257.673 149.457 261.209 169.788 257.638 189.491C254.067 209.194 243.623 226.992 228.162 239.717L255.546 272.987Z" fill="#E9F0FC" stroke="black"/>
</svg>