<svg width="103" height="17" viewBox="0 0 103 17" fill="none" xmlns="http://www.w3.org/2000/svg">
<path d="M5.29009 0.476812C5.18836 0.199336 5.44661 -0.0741518 5.72052 0.0183401L10.6466 1.67518C10.7875 1.72343 10.8854 1.85615 10.8854 2.00895V12.6938C10.8854 12.8426 10.7953 12.9712 10.6623 13.0235L0.461638 16.9766C0.238647 17.065 4.06564e-05 16.8921 0 16.6468V11.5718C0 11.3788 0.156557 11.2179 0.344371 11.2179H8.70589C8.94456 11.2179 9.11289 10.9725 9.0268 10.7433V10.7474L5.29009 0.476812Z" fill="url(#paint0_linear_5874_25654)"/>
<path d="M19.7087 0.0183401C19.9825 -0.0741388 20.2408 0.19934 20.1392 0.476812L16.4024 10.7474L16.3985 10.7433C16.3124 10.9725 16.4807 11.2179 16.7194 11.2179H25.0809C25.2686 11.2179 25.4253 11.3788 25.4253 11.5718V16.6468C25.4252 16.8921 25.1867 17.0609 24.9636 16.9766L14.7668 13.0235C14.6338 12.9712 14.5438 12.8425 14.5438 12.6938V2.00895C14.5438 1.85616 14.6417 1.72344 14.7825 1.67518L19.7087 0.0183401Z" fill="url(#paint1_linear_5874_25654)"/>
<path d="M91.2772 6.02626C93.1983 6.02626 94.4387 6.90302 94.568 8.55582H92.8345C92.7366 7.73143 92.2124 7.42167 91.3086 7.42166C90.4047 7.42166 89.9275 7.66308 89.9275 8.29845C89.9275 8.81716 90.26 9.09458 91.1991 9.31977L91.8995 9.48072C93.84 9.91905 94.6971 10.5986 94.6971 11.8974C94.6971 13.4899 93.4411 14.3626 91.3594 14.3626C89.2778 14.3626 88.1511 13.4538 87.9593 11.7367H87.9631L87.9554 11.7326H89.6886C89.8452 12.6093 90.4205 12.9631 91.4065 12.9631C92.3925 12.9631 92.9794 12.7017 92.9794 12.006C92.9794 11.4873 92.6153 11.1979 91.6293 10.9686L90.9602 10.8077C89.0079 10.3372 88.2097 9.65756 88.2097 8.41095C88.2097 6.87079 89.3561 6.02627 91.2772 6.02626Z" fill="url(#paint2_linear_5874_25654)"/>
<path fill-rule="evenodd" clip-rule="evenodd" d="M69.7374 6.01829C71.8661 6.01829 72.9303 6.95925 72.9303 9.32383V14.1737H71.2791V13.0878C70.7079 13.9122 69.8823 14.3546 68.7828 14.3547C67.169 14.3547 66.2073 13.5831 66.1776 12.1512L66.177 12.0865C66.177 10.4458 67.5893 9.89481 69.1818 9.62135L71.201 9.27961V8.98599C71.201 7.83593 70.6767 7.44591 69.6907 7.44589C68.7047 7.44589 68.2116 7.85204 68.102 8.66035H66.3685C66.482 6.91106 67.9102 6.01831 69.7374 6.01829ZM69.6553 10.8238C68.5912 11.0168 67.8908 11.1817 67.8907 11.9739C67.8907 12.6213 68.3054 12.947 69.2092 12.9471C70.2735 12.9471 71.197 12.2353 71.197 11.0169V10.5624L69.6553 10.8238Z" fill="url(#paint3_linear_5874_25654)"/>
<path d="M42.72 11.8775C42.72 12.4927 42.8919 12.7541 43.4203 12.7541C43.5337 12.7541 43.6277 12.7541 43.7529 12.738V14.1978C43.5613 14.246 43.3068 14.2823 43.0367 14.2823C41.5734 14.2823 40.9865 13.6147 40.9865 12.2715V2.82525H42.72V11.8775Z" fill="url(#paint4_linear_5874_25654)"/>
<path fill-rule="evenodd" clip-rule="evenodd" d="M48.7962 5.92579C50.9247 5.92579 51.9891 6.86691 51.9891 9.23149V14.0812H50.3379V12.9955C49.7666 13.8199 48.941 14.2621 47.8416 14.2622C46.2022 14.2622 45.2356 13.4659 45.2356 11.9901L45.2396 11.994C45.2396 10.3534 46.652 9.80247 48.2406 9.52901L50.2596 9.1871V8.89365C50.2596 7.74357 49.7353 7.3534 48.7493 7.35339C47.7633 7.35339 47.2702 7.75956 47.1608 8.56785H45.4273C45.5409 6.81858 46.969 5.9258 48.7962 5.92579ZM48.7219 10.7314C47.6577 10.9245 46.9573 11.0893 46.9573 11.8815C46.9573 12.5289 47.372 12.8547 48.2758 12.8547C49.3401 12.8547 50.2634 12.1429 50.2634 10.9244V10.47L48.7219 10.7314Z" fill="url(#paint5_linear_5874_25654)"/>
<path d="M62.0098 6.02236C63.8371 6.02236 64.7762 7.05991 64.7762 9.36416V14.1817H63.0429V9.46056C63.0429 8.11343 62.6279 7.59465 61.6458 7.59465C60.4525 7.59468 59.9126 8.43517 59.9125 9.97935V14.1778H58.195V9.45666C58.195 8.10954 57.7488 7.59078 56.7982 7.59075C55.593 7.59075 55.0648 8.4311 55.0648 9.97528V14.1737H53.3314V6.19924H54.9668V7.22072C55.5578 6.39635 56.2229 6.02236 57.209 6.02236C58.2731 6.02237 59.0518 6.42849 59.5135 7.36948C60.0691 6.46066 60.9261 6.02236 62.0098 6.02236Z" fill="url(#paint6_linear_5874_25654)"/>
<path fill-rule="evenodd" clip-rule="evenodd" d="M79.3983 2.82525C81.8633 2.82528 83.354 4.17249 83.354 6.41238C83.354 8.19787 82.3837 9.39631 80.7951 9.80247L83.8157 14.1817H81.6715L78.7487 9.94716H76.7297V14.1817H74.9337V2.82525H79.3983ZM76.7297 8.32658H79.4178C80.8146 8.32658 81.5621 7.64695 81.5621 6.41238C81.5621 5.19792 80.8146 4.51428 79.4178 4.51428H76.7297V8.32658Z" fill="url(#paint7_linear_5874_25654)"/>
<path d="M86.7697 14.1778H85.0362V6.19924H86.7697V14.1778Z" fill="url(#paint8_linear_5874_25654)"/>
<path d="M34.5537 12.4765H39.7343V14.1776H32.7577V2.82525H34.5537V12.4765Z" fill="url(#paint9_linear_5874_25654)"/>
<path d="M97.659 9.57323L100.821 6.19924H102.902L99.7094 9.60542L103 14.1776H100.965L98.5354 10.836L97.659 11.7609V14.1776H95.9256V2.82525H97.659V9.57323Z" fill="url(#paint10_linear_5874_25654)"/>
<path d="M85.901 2.82932C86.4175 2.82935 86.8361 3.25968 86.8361 3.79048C86.8361 4.32129 86.4175 4.75162 85.901 4.75165C85.3845 4.75165 84.9659 4.32131 84.9659 3.79048C84.9659 3.25966 85.3845 2.82932 85.901 2.82932Z" fill="url(#paint11_linear_5874_25654)"/>
<defs>
<linearGradient id="paint0_linear_5874_25654" x1="-1.53452" y1="8.5" x2="106.719" y2="8.5" gradientUnits="userSpaceOnUse">
<stop stop-color="#A4AFC2"/>
<stop offset="0.25" stop-color="#E7EFFC"/>
<stop offset="0.75" stop-color="#BFD4FA"/>
<stop offset="1" stop-color="#A4AFC2"/>
</linearGradient>
<linearGradient id="paint1_linear_5874_25654" x1="-1.53452" y1="8.5" x2="106.719" y2="8.5" gradientUnits="userSpaceOnUse">
<stop stop-color="#A4AFC2"/>
<stop offset="0.25" stop-color="#E7EFFC"/>
<stop offset="0.75" stop-color="#BFD4FA"/>
<stop offset="1" stop-color="#A4AFC2"/>
</linearGradient>
<linearGradient id="paint2_linear_5874_25654" x1="-1.53452" y1="8.5" x2="106.719" y2="8.5" gradientUnits="userSpaceOnUse">
<stop stop-color="#A4AFC2"/>
<stop offset="0.25" stop-color="#E7EFFC"/>
<stop offset="0.75" stop-color="#BFD4FA"/>
<stop offset="1" stop-color="#A4AFC2"/>
</linearGradient>
<linearGradient id="paint3_linear_5874_25654" x1="-1.53452" y1="8.5" x2="106.719" y2="8.5" gradientUnits="userSpaceOnUse">
<stop stop-color="#A4AFC2"/>
<stop offset="0.25" stop-color="#E7EFFC"/>
<stop offset="0.75" stop-color="#BFD4FA"/>
<stop offset="1" stop-color="#A4AFC2"/>
</linearGradient>
<linearGradient id="paint4_linear_5874_25654" x1="-1.53452" y1="8.5" x2="106.719" y2="8.5" gradientUnits="userSpaceOnUse">
<stop stop-color="#A4AFC2"/>
<stop offset="0.25" stop-color="#E7EFFC"/>
<stop offset="0.75" stop-color="#BFD4FA"/>
<stop offset="1" stop-color="#A4AFC2"/>
</linearGradient>
<linearGradient id="paint5_linear_5874_25654" x1="-1.53452" y1="8.5" x2="106.719" y2="8.5" gradientUnits="userSpaceOnUse">
<stop stop-color="#A4AFC2"/>
<stop offset="0.25" stop-color="#E7EFFC"/>
<stop offset="0.75" stop-color="#BFD4FA"/>
<stop offset="1" stop-color="#A4AFC2"/>
</linearGradient>
<linearGradient id="paint6_linear_5874_25654" x1="-1.53452" y1="8.5" x2="106.719" y2="8.5" gradientUnits="userSpaceOnUse">
<stop stop-color="#A4AFC2"/>
<stop offset="0.25" stop-color="#E7EFFC"/>
<stop offset="0.75" stop-color="#BFD4FA"/>
<stop offset="1" stop-color="#A4AFC2"/>
</linearGradient>
<linearGradient id="paint7_linear_5874_25654" x1="-1.53452" y1="8.5" x2="106.719" y2="8.5" gradientUnits="userSpaceOnUse">
<stop stop-color="#A4AFC2"/>
<stop offset="0.25" stop-color="#E7EFFC"/>
<stop offset="0.75" stop-color="#BFD4FA"/>
<stop offset="1" stop-color="#A4AFC2"/>
</linearGradient>
<linearGradient id="paint8_linear_5874_25654" x1="-1.53452" y1="8.5" x2="106.719" y2="8.5" gradientUnits="userSpaceOnUse">
<stop stop-color="#A4AFC2"/>
<stop offset="0.25" stop-color="#E7EFFC"/>
<stop offset="0.75" stop-color="#BFD4FA"/>
<stop offset="1" stop-color="#A4AFC2"/>
</linearGradient>
<linearGradient id="paint9_linear_5874_25654" x1="-1.53452" y1="8.5" x2="106.719" y2="8.5" gradientUnits="userSpaceOnUse">
<stop stop-color="#A4AFC2"/>
<stop offset="0.25" stop-color="#E7EFFC"/>
<stop offset="0.75" stop-color="#BFD4FA"/>
<stop offset="1" stop-color="#A4AFC2"/>
</linearGradient>
<linearGradient id="paint10_linear_5874_25654" x1="-1.53452" y1="8.5" x2="106.719" y2="8.5" gradientUnits="userSpaceOnUse">
<stop stop-color="#A4AFC2"/>
<stop offset="0.25" stop-color="#E7EFFC"/>
<stop offset="0.75" stop-color="#BFD4FA"/>
<stop offset="1" stop-color="#A4AFC2"/>
</linearGradient>
<linearGradient id="paint11_linear_5874_25654" x1="-1.53452" y1="8.5" x2="106.719" y2="8.5" gradientUnits="userSpaceOnUse">
<stop stop-color="#A4AFC2"/>
<stop offset="0.25" stop-color="#E7EFFC"/>
<stop offset="0.75" stop-color="#BFD4FA"/>
<stop offset="1" stop-color="#A4AFC2"/>
</linearGradient>
</defs>
</svg>
