<svg width="93" height="94" viewBox="0 0 93 94" fill="none" xmlns="http://www.w3.org/2000/svg">
    <rect y="0.5" width="93" height="93" rx="16" fill="url(#paint0_linear_13_437)" />
    <path
        d="M52.0282 57.4407C52.3124 57.251 52.7058 57.3728 52.8224 57.6865L57.2403 69.5712C57.3824 69.9534 57.0243 70.3336 56.6163 70.2339L40.3504 66.2595C39.9129 66.1526 39.8092 65.5987 40.1803 65.351L52.0282 57.4407Z"
        fill="white" />
    <path
        d="M54.8816 54.8175C54.8612 54.7626 54.8508 54.7047 54.8508 54.6464V42.6687C54.8508 42.3299 54.5129 42.0864 54.176 42.1824L40.238 46.1548C39.9011 46.2508 39.5632 46.0073 39.5632 45.6685V37.9277C39.5632 37.7694 39.6398 37.6203 39.7703 37.5243L57.9334 24.1754C58.1859 23.9899 58.5499 24.0607 58.708 24.3261L69.6801 42.747C69.7579 42.8775 69.7715 43.0346 69.7173 43.1757L60.4796 67.2325C60.3092 67.6763 59.6571 67.6729 59.4916 67.2274L54.8816 54.8175Z"
        fill="white" />
    <path
        d="M34.9125 25.2136C35.0002 25.1308 35.1152 25.0801 35.2376 25.0705L52.0015 23.7519C52.5252 23.7107 52.7807 24.3541 52.3626 24.6609L38.0738 35.1441C37.9416 35.2412 37.7695 35.2722 37.6099 35.2278L28.2006 32.612C27.8136 32.5044 27.6906 32.0343 27.9784 31.7625L34.9125 25.2136Z"
        fill="white" />
    <path
        d="M25.5815 35.2441C25.6216 34.9348 25.9388 34.7333 26.2492 34.8199L36.2212 37.6006C36.4461 37.6633 36.601 37.8619 36.601 38.0877V49.346C36.601 49.6849 36.9391 49.9285 37.2761 49.8322L51.1174 45.8774C51.4543 45.7811 51.7925 46.0246 51.7925 46.3636V53.5146C51.7925 53.6807 51.7082 53.8362 51.5668 53.931L36.042 64.3381C35.8395 64.4739 35.5665 64.4557 35.3853 64.2943L23.4191 53.6397C23.2945 53.5287 23.233 53.3665 23.2541 53.2042L25.5815 35.2441Z"
        fill="white" />
    <defs>
        <linearGradient id="paint0_linear_13_437" x1="73.625" y1="17.9375" x2="-1.35298e-05" y2="93.5"
            gradientUnits="userSpaceOnUse">
            <stop offset="0.015625" stop-color="#3294FF" />
            <stop offset="1" stop-color="#005BBE" />
        </linearGradient>
    </defs>
</svg>