<svg width="22" height="22" viewBox="0 0 22 22" fill="none" xmlns="http://www.w3.org/2000/svg">
<path d="M1.9065 12.9551C2.66932 16.4998 5.46355 19.2893 9.01064 20.0454V21C4.9459 20.217 1.74161 17.0174 0.951714 12.9551H1.9065Z" fill="#A7C2F3"/>
<path d="M20.9448 12.9551C20.156 17.0116 16.9598 20.2078 12.9033 20.9965V20.0417C16.4421 19.2802 19.2284 16.4939 19.99 12.9551H20.9448Z" fill="#A7C2F3"/>
<path d="M11.5026 5.32841H11.8463C12.6931 5.32841 13.3755 5.60346 13.8935 6.15351C14.4115 6.69299 14.6706 7.40698 14.6706 8.29554H13.5947C13.5947 7.71375 13.4353 7.24831 13.1165 6.89923C12.7977 6.55017 12.3743 6.37561 11.8463 6.3756H10.1577C9.5899 6.3756 9.13658 6.51316 8.79787 6.78818C8.45916 7.05263 8.28984 7.41228 8.28983 7.86712V8.72396C8.28983 9.09418 8.41432 9.40623 8.66337 9.6601C8.92238 9.91397 9.27605 10.0832 9.72433 10.1678L12.3992 10.6597C13.1762 10.8078 13.779 11.0934 14.2073 11.5166C14.6357 11.9291 14.8499 12.458 14.8499 13.1033V14.1187C14.8499 14.8909 14.571 15.5151 14.0131 15.9911C13.4552 16.4565 12.723 16.6892 11.8164 16.6892H11.5026V18.3077H10.4267V16.6892H10.0979C9.5002 16.6892 8.9722 16.557 8.51394 16.2926C8.05568 16.0175 7.69707 15.6367 7.43805 15.1501C7.189 14.6529 7.06446 14.0817 7.06446 13.4365H8.14035C8.14035 14.0923 8.31972 14.6265 8.67835 15.0391C9.04695 15.441 9.53011 15.642 10.1278 15.642H11.7866C12.3743 15.642 12.8475 15.5045 13.2061 15.2295C13.5648 14.9439 13.7441 14.5736 13.7441 14.1187V13.1033C13.7441 12.7436 13.6096 12.4369 13.3406 12.183C13.0816 11.9291 12.7229 11.7651 12.2647 11.6911L9.5749 11.2151C8.81779 11.0776 8.23005 10.7919 7.81165 10.3583C7.39323 9.92456 7.18397 9.37979 7.18397 8.72396V7.86712C7.18398 7.09494 7.45297 6.48141 7.99092 6.02656C8.53884 5.56113 9.26115 5.32841 10.1577 5.32841H10.4267V3.70995H11.5026V5.32841Z" fill="#A7C2F3"/>
<path d="M9.01064 1.95461C5.45774 2.71199 2.66025 5.5095 1.90285 9.0624H0.948242C1.73234 4.99183 4.94007 1.78408 9.01064 1V1.95461Z" fill="#A7C2F3"/>
<path d="M12.9033 1.00341C16.9656 1.79328 20.1653 4.99765 20.9482 9.0624H19.9936C19.2375 5.51531 16.4479 2.72107 12.9033 1.95826V1.00341Z" fill="#A7C2F3"/>
<path d="M1.9065 12.9551C2.66932 16.4998 5.46355 19.2893 9.01064 20.0454V21C4.9459 20.217 1.74161 17.0174 0.951714 12.9551H1.9065Z" stroke="#A7C2F3"/>
<path d="M20.9448 12.9551C20.156 17.0116 16.9598 20.2078 12.9033 20.9965V20.0417C16.4421 19.2802 19.2284 16.4939 19.99 12.9551H20.9448Z" stroke="#A7C2F3"/>
<path d="M11.5026 5.32841H11.8463C12.6931 5.32841 13.3755 5.60346 13.8935 6.15351C14.4115 6.69299 14.6706 7.40698 14.6706 8.29554H13.5947C13.5947 7.71375 13.4353 7.24831 13.1165 6.89923C12.7977 6.55017 12.3743 6.37561 11.8463 6.3756H10.1577C9.5899 6.3756 9.13658 6.51316 8.79787 6.78818C8.45916 7.05263 8.28984 7.41228 8.28983 7.86712V8.72396C8.28983 9.09418 8.41432 9.40623 8.66337 9.6601C8.92238 9.91397 9.27605 10.0832 9.72433 10.1678L12.3992 10.6597C13.1762 10.8078 13.779 11.0934 14.2073 11.5166C14.6357 11.9291 14.8499 12.458 14.8499 13.1033V14.1187C14.8499 14.8909 14.571 15.5151 14.0131 15.9911C13.4552 16.4565 12.723 16.6892 11.8164 16.6892H11.5026V18.3077H10.4267V16.6892H10.0979C9.5002 16.6892 8.9722 16.557 8.51394 16.2926C8.05568 16.0175 7.69707 15.6367 7.43805 15.1501C7.189 14.6529 7.06446 14.0817 7.06446 13.4365H8.14035C8.14035 14.0923 8.31972 14.6265 8.67835 15.0391C9.04695 15.441 9.53011 15.642 10.1278 15.642H11.7866C12.3743 15.642 12.8475 15.5045 13.2061 15.2295C13.5648 14.9439 13.7441 14.5736 13.7441 14.1187V13.1033C13.7441 12.7436 13.6096 12.4369 13.3406 12.183C13.0816 11.9291 12.7229 11.7651 12.2647 11.6911L9.5749 11.2151C8.81779 11.0776 8.23005 10.7919 7.81165 10.3583C7.39323 9.92456 7.18397 9.37979 7.18397 8.72396V7.86712C7.18398 7.09494 7.45297 6.48141 7.99092 6.02656C8.53884 5.56113 9.26115 5.32841 10.1577 5.32841H10.4267V3.70995H11.5026V5.32841Z" stroke="#A7C2F3"/>
<path d="M9.01064 1.95461C5.45774 2.71199 2.66025 5.5095 1.90285 9.0624H0.948242C1.73234 4.99183 4.94007 1.78408 9.01064 1V1.95461Z" stroke="#A7C2F3"/>
<path d="M12.9033 1.00341C16.9656 1.79328 20.1653 4.99765 20.9482 9.0624H19.9936C19.2375 5.51531 16.4479 2.72107 12.9033 1.95826V1.00341Z" stroke="#A7C2F3"/>
</svg>
