<svg width="13" height="12" viewBox="0 0 13 12" fill="none" xmlns="http://www.w3.org/2000/svg">
<path d="M10.1356 4.76532L6.38564 8.51532C6.35081 8.55018 6.30945 8.57784 6.26393 8.59671C6.2184 8.61558 6.16961 8.6253 6.12033 8.6253C6.07104 8.6253 6.02225 8.61558 5.97672 8.59671C5.9312 8.57784 5.88984 8.55018 5.85501 8.51532L2.10501 4.76532C2.03465 4.69495 1.99512 4.59951 1.99512 4.5C1.99512 4.40049 2.03465 4.30506 2.10501 4.23469C2.17538 4.16432 2.27081 4.12479 2.37033 4.12479C2.46984 4.12479 2.56527 4.16432 2.63564 4.23469L6.12033 7.71985L9.60501 4.23469C9.63985 4.19985 9.68122 4.17221 9.72674 4.15335C9.77226 4.1345 9.82105 4.12479 9.87033 4.12479C9.9196 4.12479 9.96839 4.1345 10.0139 4.15335C10.0594 4.17221 10.1008 4.19985 10.1356 4.23469C10.1705 4.26953 10.1981 4.31089 10.217 4.35642C10.2358 4.40194 10.2455 4.45073 10.2455 4.5C10.2455 4.54928 10.2358 4.59807 10.217 4.64359C10.1981 4.68911 10.1705 4.73047 10.1356 4.76532Z" fill="white"/>
</svg>
