<svg width="108" height="18" viewBox="0 0 108 18" fill="none" xmlns="http://www.w3.org/2000/svg">
<g clip-path="url(#clip0_2055_23994)">
<path d="M98.4611 14.3017C96.1588 14.3017 94.1128 12.622 93.5855 10.3028H107.255C107.255 10.3028 107.329 9.46245 107.329 9.16522C107.329 4.24291 103.352 0.237305 98.4633 0.237305C93.575 0.237305 89.5977 4.24207 89.5977 9.16522C89.5977 14.0884 93.5527 18.0001 98.4633 18.0001C103.374 18.0001 106.242 14.3574 106.957 11.7202H102.79C102.79 11.7202 101.465 14.3017 98.4611 14.3017ZM98.4633 3.93402C100.671 3.93402 102.587 5.40207 103.244 7.59007H93.683C94.337 5.40207 96.2542 3.93402 98.4633 3.93402Z" fill="white"/>
<path d="M46.298 18.0001C41.4096 18.0001 37.5752 14.0368 37.5752 9.16522C37.5752 4.29355 41.5523 0.237305 46.4407 0.237305C51.329 0.237305 55.3062 4.39984 55.3062 9.1179C55.3062 11.1281 55.3062 17.5576 55.3062 17.5576H51.8642V14.741L51.6136 14.6746C51.0074 16.1708 48.8114 18.0001 46.2972 18.0001H46.298ZM46.4407 3.93402C43.6799 3.93402 41.4327 6.26812 41.4327 9.13777C41.4327 12.0075 43.6791 14.3026 46.4407 14.3026C49.2023 14.3026 51.4487 11.9859 51.4487 9.13777C51.4487 6.28972 49.2023 3.93402 46.4407 3.93402Z" fill="white"/>
<path d="M65.1272 18.0001C60.2388 18.0001 56.4043 14.0368 56.4043 9.16522C56.4043 4.29355 60.3814 0.237305 65.2698 0.237305C70.1582 0.237305 74.1354 4.39984 74.1354 9.1179C74.1354 11.1281 74.1354 17.5576 74.1354 17.5576H70.6934V14.741L70.4427 14.6746C69.8366 16.1708 67.6406 18.0001 65.1264 18.0001H65.1272ZM65.2698 3.93402C62.509 3.93402 60.2619 6.26812 60.2619 9.13777C60.2619 12.0075 62.5082 14.3026 65.2698 14.3026C68.0315 14.3026 70.2778 11.9859 70.2778 9.13777C70.2778 6.28972 68.0315 3.93402 65.2698 3.93402Z" fill="white"/>
<path d="M79.913 17.5552L72.8486 0.680908H76.714L81.8913 13.1113L87.0701 0.680908H90.9342L83.8703 17.5552H79.913Z" fill="white"/>
<path d="M12.5676 17.9734C14.49 17.9734 16.0484 16.4042 16.0484 14.4685C16.0484 12.5328 14.49 10.9636 12.5676 10.9636C10.6453 10.9636 9.08691 12.5328 9.08691 14.4685C9.08691 16.4042 10.6453 17.9734 12.5676 17.9734Z" fill="white"/>
<path d="M21.6663 17.9734C23.5886 17.9734 25.147 16.4042 25.147 14.4685C25.147 12.5328 23.5886 10.9636 21.6663 10.9636C19.7439 10.9636 18.1855 12.5328 18.1855 14.4685C18.1855 16.4042 19.7439 17.9734 21.6663 17.9734Z" fill="white"/>
<path d="M17.1109 0C7.65988 0 -0.00247327 7.86255 5.98865e-07 17.5585H4.37132C4.37132 10.2922 10.0298 4.40085 17.1109 4.40085C24.1919 4.40085 29.8505 10.2922 29.8505 17.5585H34.2218C34.2235 7.86255 26.5611 0 17.1109 0Z" fill="white"/>
</g>
<defs>
<clipPath id="clip0_2055_23994">
<rect width="108" height="18" fill="white"/>
</clipPath>
</defs>
</svg>
