<svg width="800" height="800" viewBox="0 0 800 800" fill="none" xmlns="http://www.w3.org/2000/svg">
<rect width="800" height="800" fill="black"/>
<g clip-path="url(#clip0_117_419)">
<path d="M648.993 499.694L572.758 430.718C594.24 427.49 610.877 420.568 622.656 410.188C634.668 399.346 640.675 383.429 640.675 363.128C640.675 339.368 632.127 321.605 615.495 310.07C598.863 298.767 574.835 293 544.112 293H441.31V505.23H476.657V322.758H537.413C561.208 322.758 578.535 325.987 589.162 332.447C603.023 340.751 609.492 350.672 609.492 363.59C609.492 376.507 601.868 388.734 588.24 396.347C578.999 401.652 566.061 404.651 549.199 405.574C545.503 405.804 535.798 405.804 535.798 405.804H534.874V435.794C534.874 437.178 535.336 438.331 536.49 439.255L606.488 504.078C607.413 504.769 608.335 505.23 609.492 505.23H646.916C648.303 505.23 649.457 504.539 649.92 503.154C650.15 502.002 649.92 500.617 648.995 499.694H648.993Z" fill="white"/>
<path d="M333.835 293L334.118 406.727C334.118 423.338 331.114 437.178 325.109 447.559C319.102 457.939 310.556 465.784 299.697 470.627C288.607 475.702 275.209 478.24 259.731 478.24C244.254 478.24 230.853 475.702 219.766 470.627C208.676 465.781 200.13 457.939 194.356 447.559C188.349 437.178 185.345 423.338 185.345 406.727V293H150V407.882C150 441.792 159.933 467.4 179.8 483.547C199.436 499.696 226.465 508 259.964 508C293.462 508 320.489 499.696 340.127 483.547C359.762 467.398 369.927 441.792 369.927 407.882V293H333.835Z" fill="white"/>
</g>
<defs>
<clipPath id="clip0_117_419">
<rect width="500" height="215" fill="white" transform="translate(150 293)"/>
</clipPath>
</defs>
</svg>
