<svg width="64" height="64" viewBox="0 0 64 64" fill="none" xmlns="http://www.w3.org/2000/svg">
<path d="M31.9119 60.0999C31.9119 60.0999 53.6343 49.7969 53.6343 37.9623C53.6343 28.7839 53.6343 22.8217 53.6343 13.6433C39.8442 7.32434 23.9814 7.31779 10.188 13.6295C10.2005 22.8125 10.1893 28.7793 10.1893 37.9623C10.1893 49.7969 31.9119 60.0999 31.9119 60.0999Z" fill="#1647DB"/>
<path fill-rule="evenodd" clip-rule="evenodd" d="M27.3969 17.3525H30.2067V20.1392H33.0164V17.3525H35.8262V20.372C39.0147 21.0696 40.9307 23.2921 40.9307 26.4616C40.9307 28.6892 39.5916 30.6875 37.2568 31.3754C39.9006 32.0634 41.4457 34.2254 41.4457 36.6168C41.4457 40.0394 39.3962 42.3445 35.8262 43.0973V46.1525H33.0164V43.3651H30.2067V46.1525H27.3969V43.3651H24.5872V20.1392H27.3969V17.3525ZM36.4328 26.6909C36.4328 24.8565 35.0594 23.7754 32.6902 23.7754H28.9821V29.6065H32.9306C35.128 29.6065 36.4328 28.5254 36.4328 26.6909ZM36.9478 36.3875C36.9478 34.2254 35.6087 33.1444 32.9649 33.1444H28.9821V39.5651H32.7246C35.334 39.5651 36.9478 38.353 36.9478 36.3875Z" fill="white"/>
</svg>
