<svg width="142" height="37" viewBox="0 0 142 37" fill="none" xmlns="http://www.w3.org/2000/svg">
<g clip-path="url(#clip0_2070_25563)">
<path fill-rule="evenodd" clip-rule="evenodd" d="M71.0618 18.1576C71.0618 16.2134 69.7819 14.8525 68.0645 14.8525C66.3472 14.8525 65.0673 16.2134 65.0673 18.1576C65.0673 20.1017 66.3472 21.4626 68.0645 21.4626C69.7657 21.4626 71.0618 20.0855 71.0618 18.1576ZM62.5237 18.1576C62.5237 14.9983 64.9377 12.5681 68.0645 12.5681C71.1914 12.5681 73.6054 14.9983 73.6054 18.1576C73.6054 21.3168 71.1914 23.747 68.0645 23.747C64.9377 23.747 62.5237 21.3168 62.5237 18.1576Z" fill="url(#paint0_linear_2070_25563)"/>
<path fill-rule="evenodd" clip-rule="evenodd" d="M77.1193 18.1245C77.1193 20.101 78.4316 21.4619 80.1004 21.4619C81.7691 21.4619 83.0814 20.1172 83.0814 18.1245C83.0814 16.1317 81.7691 14.787 80.1004 14.787C78.4316 14.8032 77.1193 16.1479 77.1193 18.1245ZM77.2003 22.3206H77.1517V27.5374H74.7053V12.7132H77.1517V13.9445H77.2003C77.897 13.2479 78.9501 12.5188 80.5864 12.5188C83.4054 12.5188 85.6088 14.7708 85.6088 18.1407C85.6088 21.5105 83.4054 23.7625 80.5864 23.7625C78.9663 23.7463 77.897 23.0172 77.2003 22.3206Z" fill="url(#paint1_linear_2070_25563)"/>
<path fill-rule="evenodd" clip-rule="evenodd" d="M89.2543 18.1245C89.2543 20.101 90.5666 21.4619 92.2354 21.4619C93.9041 21.4619 95.2164 20.1172 95.2164 18.1245C95.2164 16.1317 93.9041 14.787 92.2354 14.787C90.5666 14.787 89.2543 16.1479 89.2543 18.1245ZM89.3353 22.3206H89.2867V27.5374H86.8403V12.7132H89.2867V13.9445H89.3353C90.032 13.2479 91.0851 12.5188 92.7214 12.5188C95.5404 12.5188 97.7438 14.7708 97.7438 18.1407C97.7438 21.5105 95.5404 23.7625 92.7214 23.7625C91.1013 23.7463 90.032 23.0172 89.3353 22.3206Z" fill="url(#paint2_linear_2070_25563)"/>
<path fill-rule="evenodd" clip-rule="evenodd" d="M101.26 17.04H106.574C106.314 15.6791 105.213 14.6908 103.917 14.6908C102.621 14.6908 101.519 15.6791 101.26 17.04ZM106.493 20.0697L109.052 20.4099C108.032 22.8887 106.25 23.7474 104.062 23.7474C100.936 23.7474 98.635 21.4954 98.635 18.1255C98.635 14.7556 100.936 12.5037 103.884 12.5037C106.833 12.5037 109.295 14.545 109.295 18.9194H101.292C101.47 20.6529 102.702 21.5764 104.095 21.5764C105.213 21.5764 106.071 21.0093 106.493 20.0697Z" fill="url(#paint3_linear_2070_25563)"/>
<path fill-rule="evenodd" clip-rule="evenodd" d="M112.907 12.7136V13.9449H112.956C113.506 13.2482 114.3 12.6326 115.758 12.6326C115.937 12.6326 116.309 12.6812 116.552 12.7622V15.2086C116.228 15.1276 115.791 15.079 115.515 15.079C113.685 15.079 112.923 15.8728 112.923 17.6388V23.536H110.477V12.7136H112.907Z" fill="url(#paint4_linear_2070_25563)"/>
<path fill-rule="evenodd" clip-rule="evenodd" d="M58.6826 19.8424C58.2289 20.8793 57.3541 21.495 56.2038 21.5112C55.1669 21.495 54.3406 20.9765 53.8546 20.1017C53.7574 19.9072 53.6602 19.6804 53.5954 19.4374H53.5792C53.4657 19.0486 53.4009 18.6111 53.4009 18.1251C53.4009 17.6391 53.4657 17.2016 53.5792 16.8128H53.5954C53.6602 16.5698 53.7574 16.3592 53.8546 16.1485C54.3406 15.2737 55.1669 14.7552 56.2038 14.739C57.3379 14.7552 58.2289 15.3871 58.6826 16.424C58.7312 16.5374 58.7798 16.667 58.8122 16.8128C58.8122 16.829 58.8122 16.8452 58.8284 16.8452H61.4206C61.3558 16.4888 61.2586 16.1323 61.129 15.8083C60.3675 13.7993 58.6016 12.5356 56.3172 12.5356H56.0904C54.0814 12.5356 52.4775 13.5239 51.6026 15.1603C51.1328 16.0027 50.8735 17.0072 50.8735 18.1575C50.8735 19.3078 51.1328 20.3123 51.6026 21.1547C52.4775 22.7911 54.0814 23.7794 56.0904 23.7794H56.3172C58.6016 23.7794 60.3513 22.4995 61.1128 20.4743C61.1938 20.2799 61.2586 20.0693 61.3072 19.8748H58.6826V19.8424Z" fill="url(#paint5_linear_2070_25563)"/>
<path fill-rule="evenodd" clip-rule="evenodd" d="M114.754 22.0785C114.754 21.236 115.516 20.4421 116.39 20.4421C117.265 20.4421 118.027 21.236 118.027 22.0785C118.027 22.9209 117.249 23.7148 116.39 23.7148C115.532 23.7148 114.754 22.9371 114.754 22.0785Z" fill="url(#paint6_linear_2070_25563)"/>
<path fill-rule="evenodd" clip-rule="evenodd" d="M138.814 18.1576C138.814 16.2134 137.534 14.8525 135.817 14.8525C134.1 14.8525 132.82 16.2134 132.82 18.1576C132.82 20.1017 134.1 21.4626 135.817 21.4626C137.534 21.4626 138.814 20.0855 138.814 18.1576ZM130.26 18.1576C130.26 14.9983 132.674 12.5681 135.801 12.5681C138.928 12.5681 141.342 14.9983 141.342 18.1576C141.342 21.3168 138.928 23.747 135.801 23.747C132.674 23.747 130.26 21.3168 130.26 18.1576Z" fill="url(#paint7_linear_2070_25563)"/>
<path fill-rule="evenodd" clip-rule="evenodd" d="M126.356 19.8422C125.903 20.8791 125.028 21.4947 123.877 21.5109C122.84 21.4947 122.014 20.9763 121.528 20.1014C121.431 19.907 121.334 19.6802 121.269 19.4372H121.253C121.139 19.0483 121.075 18.6109 121.075 18.1249C121.075 17.6388 121.139 17.2014 121.253 16.8125H121.269C121.334 16.5695 121.431 16.3589 121.528 16.1483C122.014 15.2734 122.84 14.755 123.877 14.7388C125.011 14.755 125.903 15.3868 126.356 16.4237C126.405 16.5371 126.453 16.6667 126.486 16.8125C126.486 16.8287 126.486 16.8449 126.502 16.8449H129.094C129.029 16.4885 128.932 16.1321 128.803 15.8081C128.025 13.7991 126.275 12.5354 123.991 12.5354H123.764C121.755 12.5354 120.151 13.5237 119.276 15.16C118.806 16.0025 118.547 17.007 118.547 18.1573C118.547 19.3075 118.806 20.312 119.276 21.1545C120.151 22.7908 121.755 23.7791 123.764 23.7791H123.991C126.275 23.7791 128.025 22.4992 128.786 20.474C128.867 20.2796 128.932 20.069 128.981 19.8746H126.356V19.8422Z" fill="url(#paint8_linear_2070_25563)"/>
<path fill-rule="evenodd" clip-rule="evenodd" d="M34.0878 29.3368C32.3543 31.2972 30.4263 32.3016 29.114 32.8039C25.4525 34.181 21.7424 34.1324 18.1133 32.6419C14.4032 31.1189 11.0819 27.9597 9.46181 24.4116C8.73275 22.8239 8.34392 21.1551 8.29532 19.454C8.27911 19.0976 8.27911 18.6925 8.27911 18.6115V18.0769C8.32772 15.6467 9.2998 13.2975 10.9847 11.483C11.7462 10.6729 12.6211 10.041 13.6255 9.60361C14.6138 9.16617 15.6993 8.93935 16.8658 8.90695C16.4608 9.23097 16.0881 9.5712 15.7317 9.96003C13.7066 12.131 12.5887 15.1121 12.5887 18.3685C12.5887 21.625 13.7066 24.606 15.7317 26.777C16.8982 28.0245 18.2915 28.948 19.8793 29.4988C20.9971 29.8876 22.2122 30.0821 23.4759 30.0821C25.5983 30.0821 28.6604 29.515 31.1716 26.7932C32.0302 25.8697 32.7269 24.7842 33.2453 23.5853H37.3929C36.68 25.7401 35.5621 27.7167 34.0878 29.3368ZM6.44837 29.3368C3.75895 26.4692 2.26843 22.5647 2.26843 18.3361C2.26843 14.1076 3.75895 10.1707 6.44837 7.27062C9.17019 4.33818 12.9451 2.73425 17.044 2.73425C18.0647 2.73425 19.0854 2.83146 20.0575 3.02587C25.2419 4.07896 29.3246 7.88627 30.9772 13.1193H26.8296C26.3112 11.9204 25.6145 10.8511 24.7558 9.91143C23.6056 8.66393 22.2284 7.75666 20.6569 7.20581C19.539 6.81698 18.3239 6.62256 17.0602 6.62256C15.5049 6.62256 14.0468 6.91419 12.7021 7.51364C11.4222 8.08068 10.2881 8.89075 9.316 9.92763C9.07298 10.1869 8.84616 10.4461 8.63554 10.7215C7.27463 12.2282 6.39976 14.221 6.10814 16.6836C6.04333 17.121 6.01093 17.5584 6.01093 17.9959V18.3361V18.4495V18.5143V18.5467C6.01093 18.8222 6.01093 19.0976 6.02713 19.3568V19.4702C6.07574 21.4792 6.52937 23.4557 7.38804 25.3189C8.92717 28.6888 11.7948 31.7346 15.1323 33.6626C11.7624 33.2737 8.73275 31.767 6.44837 29.3368ZM32.7917 6.03932C34.9951 7.88627 36.518 10.3165 37.2633 13.1355H33.3263C32.1274 8.74494 29.4542 5.16445 25.8737 2.94487C28.4659 3.3337 30.8313 4.38678 32.7917 6.03932ZM24.7396 26.7608C25.5983 25.8373 26.295 24.7518 26.8134 23.5529H30.7017C30.3615 24.1686 29.9565 24.7194 29.4866 25.2217C27.5911 27.263 25.2905 27.7491 23.638 27.7815C24.0268 27.4899 24.3994 27.1334 24.7396 26.7608ZM40.0013 21.301H25.2419L24.9665 22.0624C24.529 23.2775 23.8972 24.3468 23.0709 25.2379C22.2446 26.1289 21.2888 26.7932 20.2033 27.2144C19.1178 26.777 18.1619 26.1127 17.3518 25.2379C15.7155 23.4881 14.8244 21.0417 14.8244 18.3685C14.8244 15.6953 15.7155 13.2651 17.3518 11.4992C18.1133 10.6891 18.9882 10.0572 19.9927 9.61981C20.0737 9.5874 20.1709 9.5388 20.2519 9.5064C21.3212 9.94383 22.2608 10.5919 23.0709 11.4668C23.8972 12.3578 24.529 13.4271 24.9665 14.6422L25.2419 15.4037H40.0175C40.0175 10.9483 37.1823 6.75217 34.266 4.30578C31.2688 1.79457 27.5263 0.482266 23.4435 0.482266C22.3743 0.482266 21.3212 0.579474 20.2843 0.773889C19.2312 0.579474 18.1457 0.466064 17.044 0.466064C12.3132 0.466064 7.95509 2.32922 4.79583 5.73149C1.70138 9.05276 0.000244141 13.5243 0.000244141 18.3361C0.000244141 23.1479 1.70138 27.6033 4.79583 30.8759C7.93889 34.2134 12.2808 36.0603 17.0278 36.0603C18.1133 36.0603 19.701 36.0603 20.8837 35.8011C21.8558 35.9793 22.8279 36.0603 23.8 36.0603C25.8413 36.0603 27.8665 35.6715 29.9079 34.9101C31.4632 34.3268 33.7314 33.1441 35.7565 30.8435L35.7727 30.8273C37.8141 28.6077 39.7583 25.3027 40.0013 21.301Z" fill="url(#paint9_linear_2070_25563)"/>
</g>
<defs>
<linearGradient id="paint0_linear_2070_25563" x1="62.3586" y1="18.1576" x2="74.0055" y2="18.1576" gradientUnits="userSpaceOnUse">
<stop stop-color="#A4AFC2"/>
<stop offset="0.25" stop-color="#E7EFFC"/>
<stop offset="0.75" stop-color="#BFD4FA"/>
<stop offset="1" stop-color="#A4AFC2"/>
</linearGradient>
<linearGradient id="paint1_linear_2070_25563" x1="74.5429" y1="20.0281" x2="86.0025" y2="20.0281" gradientUnits="userSpaceOnUse">
<stop stop-color="#A4AFC2"/>
<stop offset="0.25" stop-color="#E7EFFC"/>
<stop offset="0.75" stop-color="#BFD4FA"/>
<stop offset="1" stop-color="#A4AFC2"/>
</linearGradient>
<linearGradient id="paint2_linear_2070_25563" x1="86.6779" y1="20.0281" x2="98.1375" y2="20.0281" gradientUnits="userSpaceOnUse">
<stop stop-color="#A4AFC2"/>
<stop offset="0.25" stop-color="#E7EFFC"/>
<stop offset="0.75" stop-color="#BFD4FA"/>
<stop offset="1" stop-color="#A4AFC2"/>
</linearGradient>
<linearGradient id="paint3_linear_2070_25563" x1="98.4762" y1="18.1255" x2="109.68" y2="18.1255" gradientUnits="userSpaceOnUse">
<stop stop-color="#A4AFC2"/>
<stop offset="0.25" stop-color="#E7EFFC"/>
<stop offset="0.75" stop-color="#BFD4FA"/>
<stop offset="1" stop-color="#A4AFC2"/>
</linearGradient>
<linearGradient id="paint4_linear_2070_25563" x1="110.386" y1="18.0843" x2="116.772" y2="18.0843" gradientUnits="userSpaceOnUse">
<stop stop-color="#A4AFC2"/>
<stop offset="0.25" stop-color="#E7EFFC"/>
<stop offset="0.75" stop-color="#BFD4FA"/>
<stop offset="1" stop-color="#A4AFC2"/>
</linearGradient>
<linearGradient id="paint5_linear_2070_25563" x1="50.7164" y1="18.1575" x2="61.8014" y2="18.1575" gradientUnits="userSpaceOnUse">
<stop stop-color="#A4AFC2"/>
<stop offset="0.25" stop-color="#E7EFFC"/>
<stop offset="0.75" stop-color="#BFD4FA"/>
<stop offset="1" stop-color="#A4AFC2"/>
</linearGradient>
<linearGradient id="paint6_linear_2070_25563" x1="114.705" y1="22.0785" x2="118.145" y2="22.0785" gradientUnits="userSpaceOnUse">
<stop stop-color="#A4AFC2"/>
<stop offset="0.25" stop-color="#E7EFFC"/>
<stop offset="0.75" stop-color="#BFD4FA"/>
<stop offset="1" stop-color="#A4AFC2"/>
</linearGradient>
<linearGradient id="paint7_linear_2070_25563" x1="130.095" y1="18.1576" x2="141.742" y2="18.1576" gradientUnits="userSpaceOnUse">
<stop stop-color="#A4AFC2"/>
<stop offset="0.25" stop-color="#E7EFFC"/>
<stop offset="0.75" stop-color="#BFD4FA"/>
<stop offset="1" stop-color="#A4AFC2"/>
</linearGradient>
<linearGradient id="paint8_linear_2070_25563" x1="118.39" y1="18.1573" x2="129.475" y2="18.1573" gradientUnits="userSpaceOnUse">
<stop stop-color="#A4AFC2"/>
<stop offset="0.25" stop-color="#E7EFFC"/>
<stop offset="0.75" stop-color="#BFD4FA"/>
<stop offset="1" stop-color="#A4AFC2"/>
</linearGradient>
<linearGradient id="paint9_linear_2070_25563" x1="-0.595943" y1="18.2632" x2="41.4623" y2="18.2632" gradientUnits="userSpaceOnUse">
<stop stop-color="#A4AFC2"/>
<stop offset="0.25" stop-color="#E7EFFC"/>
<stop offset="0.75" stop-color="#BFD4FA"/>
<stop offset="1" stop-color="#A4AFC2"/>
</linearGradient>
<clipPath id="clip0_2070_25563">
<rect width="141.34" height="36.534" fill="white" transform="translate(0 0.466064)"/>
</clipPath>
</defs>
</svg>
